<svg width="560" height="160" viewBox="0 0 560 160" fill="none" xmlns="http://www.w3.org/2000/svg">
<g clip-path="url(#clip0_1871_16823)">
<rect width="560" height="160" fill="#F97316"/>
<path fill-rule="evenodd" clip-rule="evenodd" d="M579.93 186.768C573.636 207.259 586.618 233.958 572.206 249.817C560.743 262.432 538.594 253.133 521.681 250.866C504.985 248.628 482.53 251.072 473.839 236.631C463.369 219.233 484.53 195.462 476.994 176.61C471.357 162.511 442.326 166.325 439.754 151.366C437.262 136.872 463.808 131.655 466.789 117.263C470.448 99.6013 446.097 78.3398 457.734 64.5716C468.798 51.4806 493.11 75.6449 508.444 67.9795C527.209 58.5989 526.799 22.9041 547.538 19.679C565.447 16.8939 574.167 43.3203 587.437 55.6951C598.539 66.0486 612.852 73.4651 619.724 86.9986C626.448 100.24 629.396 116.29 625.468 130.595C621.675 144.411 607.732 152.397 598.713 163.522C592.36 171.359 582.893 177.121 579.93 186.768Z" fill="#FB923C"/>
<path fill-rule="evenodd" clip-rule="evenodd" d="M-11.3809 95.108C-18.7209 81.2525 -39.2358 74.1574 -39.9841 58.4996C-40.5793 46.0446 -24.3209 39.3976 -14.4053 31.8221C-4.6164 24.3434 5.72918 11.4635 17.6881 14.438C32.0961 18.0216 33.4454 41.2635 47.088 47.1169C57.291 51.4944 70.3277 34.5042 79.3916 40.9118C88.1734 47.12 77.1462 63.55 83.0454 72.5368C90.2847 83.5649 113.866 81.9666 114.968 95.108C116.016 107.603 90.9538 107.679 86.9892 119.576C82.1375 134.135 100.803 152.387 91.7492 164.782C83.9302 175.487 65.7596 166.328 52.5017 166.791C41.4093 167.178 30.1749 170.746 19.6254 167.3C9.30363 163.928 -0.518444 157.151 -5.88331 147.72C-11.0649 138.611 -7.98515 127.268 -9.07399 116.848C-9.84096 109.508 -7.92543 101.631 -11.3809 95.108Z" fill="#FB923C"/>
<path fill-rule="evenodd" clip-rule="evenodd" d="M258.316 -23.2518C274.797 -27.7692 287.221 -47.9125 304.051 -44.9875C317.439 -42.6608 320.642 -23.7808 326.341 -11.4295C331.967 0.764049 343.205 14.8336 337.197 26.8519C329.96 41.3314 304.921 37.2435 295.452 50.3693C288.371 60.1856 303.34 78.0956 294.37 86.2175C285.679 94.0865 270.828 78.448 259.868 82.5895C246.418 87.6717 242.51 113.144 228.272 111.193C214.735 109.339 220.613 82.6526 208.903 75.6066C194.573 66.984 170.724 82.5084 159.694 69.928C150.169 59.064 164.23 41.9057 166.89 27.6883C169.116 15.7931 167.993 2.99093 174.166 -7.41558C180.206 -17.5975 189.75 -26.4383 201.055 -29.9056C211.975 -33.2544 223.306 -27.2815 234.647 -25.9637C242.635 -25.0354 250.557 -21.1251 258.316 -23.2518Z" fill="#FB923C"/>
<path d="M407.329 84.9723C386.742 144.851 393.947 178.356 403.524 192.881C406.634 197.597 412.787 196.815 415.623 191.93C422.967 179.282 435.868 151.679 453.362 100.799C470.408 51.2214 478.444 18.4264 481.661 0.52918C482.956 -6.67545 476.811 -11.9914 470.454 -8.3618C452.819 1.70735 426.866 28.1511 407.329 84.9723Z" fill="#E28C35"/>
<path d="M401.759 83.057C381.172 142.936 388.377 176.441 397.954 190.966C401.063 195.682 407.217 194.9 410.053 190.015C417.396 177.367 430.298 149.764 447.791 98.8838C464.837 49.3062 472.874 16.5111 476.091 -1.3861C477.386 -8.59074 471.24 -13.9067 464.883 -10.2771C447.248 -0.207933 421.295 26.2359 401.759 83.057Z" fill="#E49A4B"/>
<path d="M426.501 72.3629L406.033 72.8487L411.947 68.9548L410.239 60.617L426.501 72.3629Z" fill="#D17E16"/>
<path d="M440.545 45.9028L415.23 49.65L423.07 35.5843L440.545 45.9028Z" fill="#D17E16"/>
<path d="M416.009 106.781L393.607 113.214L396.987 100.241L416.009 106.781Z" fill="#D17E16"/>
<ellipse cx="2.45646" cy="0.829723" rx="2.45646" ry="0.829723" transform="matrix(-0.0159179 -0.999873 0.994476 0.104964 434.238 32.9716)" fill="#FFCE99"/>
<ellipse cx="2.45646" cy="0.829723" rx="2.45646" ry="0.829723" transform="matrix(-0.0159179 -0.999873 0.994476 0.104964 438.848 29.6716)" fill="#FFCE99"/>
<ellipse cx="1.54355" cy="0.521367" rx="1.54355" ry="0.521367" transform="matrix(-0.0159179 -0.999873 0.994476 0.104964 443.914 29.1672)" fill="#FFCE99"/>
<ellipse cx="1.54355" cy="0.521367" rx="1.54355" ry="0.521367" transform="matrix(-0.0159179 -0.999873 0.994476 0.104964 436.381 41.8188)" fill="#FFCE99"/>
<ellipse cx="1.54355" cy="0.521367" rx="1.54355" ry="0.521367" transform="matrix(-0.0159179 -0.999873 0.994476 0.104964 442.391 42.2262)" fill="#FFCE99"/>
<ellipse cx="1.54355" cy="0.521367" rx="1.54355" ry="0.521367" transform="matrix(-0.0159179 -0.999873 0.994476 0.104964 430.854 37.6072)" fill="#FFCE99"/>
<ellipse cx="2.46941" cy="0.826724" rx="2.46941" ry="0.826724" transform="matrix(0.658811 -0.752308 0.833492 0.552531 438.637 34.0426)" fill="#FFCE99"/>
<ellipse cx="2.45646" cy="0.829723" rx="2.45646" ry="0.829723" transform="matrix(-0.0159179 -0.999873 0.994476 0.104964 412.463 87.6683)" fill="#FFCE99"/>
<ellipse cx="2.45646" cy="0.829723" rx="2.45646" ry="0.829723" transform="matrix(-0.0159179 -0.999873 0.994476 0.104964 417.072 84.3683)" fill="#FFCE99"/>
<ellipse cx="1.54355" cy="0.521367" rx="1.54355" ry="0.521367" transform="matrix(-0.0159179 -0.999873 0.994476 0.104964 422.139 83.864)" fill="#FFCE99"/>
<ellipse cx="1.54355" cy="0.521367" rx="1.54355" ry="0.521367" transform="matrix(-0.0159179 -0.999873 0.994476 0.104964 414.605 96.5156)" fill="#FFCE99"/>
<ellipse cx="1.54355" cy="0.521367" rx="1.54355" ry="0.521367" transform="matrix(-0.0159179 -0.999873 0.994476 0.104964 420.615 96.9229)" fill="#FFCE99"/>
<ellipse cx="1.54355" cy="0.521367" rx="1.54355" ry="0.521367" transform="matrix(-0.0159179 -0.999873 0.994476 0.104964 409.078 92.304)" fill="#FFCE99"/>
<ellipse cx="2.46941" cy="0.826724" rx="2.46941" ry="0.826724" transform="matrix(0.658811 -0.752308 0.833492 0.552531 416.861 88.7394)" fill="#FFCE99"/>
<ellipse cx="2.45646" cy="0.829723" rx="2.45646" ry="0.829723" transform="matrix(-0.0159179 -0.999873 0.994476 0.104964 396.775 134.536)" fill="#FFCE99"/>
<ellipse cx="2.45646" cy="0.829723" rx="2.45646" ry="0.829723" transform="matrix(-0.0159179 -0.999873 0.994476 0.104964 401.387 131.236)" fill="#FFCE99"/>
<ellipse cx="1.54355" cy="0.521367" rx="1.54355" ry="0.521367" transform="matrix(-0.0159179 -0.999873 0.994476 0.104964 406.453 130.732)" fill="#FFCE99"/>
<ellipse cx="1.54355" cy="0.521367" rx="1.54355" ry="0.521367" transform="matrix(-0.0159179 -0.999873 0.994476 0.104964 398.92 143.383)" fill="#FFCE99"/>
<ellipse cx="1.54355" cy="0.521367" rx="1.54355" ry="0.521367" transform="matrix(-0.0159179 -0.999873 0.994476 0.104964 404.93 143.791)" fill="#FFCE99"/>
<ellipse cx="1.54355" cy="0.521367" rx="1.54355" ry="0.521367" transform="matrix(-0.0159179 -0.999873 0.994476 0.104964 393.393 139.172)" fill="#FFCE99"/>
<ellipse cx="2.46941" cy="0.826724" rx="2.46941" ry="0.826724" transform="matrix(0.658811 -0.752308 0.833492 0.552531 401.176 135.607)" fill="#FFCE99"/>
<path d="M441.122 67.9278L453.964 81.1681L455.256 77.4101L441.122 67.9278Z" fill="#E28C35"/>
<path d="M453.456 32.055L466.298 45.2953L467.59 41.5374L453.456 32.055Z" fill="#E28C35"/>
<path d="M425.2 114.004L438.042 127.244L439.334 123.486L425.2 114.004Z" fill="#E28C35"/>
<path d="M522.989 59.818C525.694 58.6911 527.56 61.2893 528.154 62.7292C525.729 62.7292 524.782 64.612 524.585 67.0687C524.389 69.5253 526.944 70.4097 525.863 72.0803C524.998 73.4167 521.637 72.3095 520.065 71.5889C521.31 73.7508 523.308 78.3496 521.342 79.4502C519.377 80.5508 515.807 78.9916 514.267 78.0745C514.66 78.5331 515.077 80.0005 513.598 82.2017C512.119 84.4028 501.963 82.5292 497.07 81.3173C491.252 84.9335 487.243 83.4136 485.967 82.2017C482.03 81.5466 473.314 80.0791 469.949 79.4502C466.584 78.8213 463.175 87.4425 461.891 91.8317L462.874 80.6294C464.643 66.086 473.217 68.3638 473.686 66.11C474.062 64.3069 474.156 61.164 474.156 59.818H480.823C482.608 59.818 482.795 54.8407 482.889 52.9625C482.983 51.0843 486.552 51.8356 488.618 51.8356C490.684 51.8356 491.059 46.9523 493.313 45.5437C495.116 44.4167 496.569 47.2027 497.07 48.7366C497.665 48.1418 499.136 46.5579 500.263 44.9801C501.671 43.008 499.699 41.4116 502.798 40.1907C505.897 38.9699 507.212 45.5437 508.902 46.9523C510.593 48.361 510.029 45.3559 513.598 45.5437C516.453 45.6939 516.916 47.234 516.791 47.9853C515.589 47.8351 515.038 49.6131 514.913 50.5209L517.824 53.7138C524.36 52.5118 526.245 55.0912 526.37 56.5311C523.44 56.9819 522.895 58.9102 522.989 59.818Z" fill="#48AB1D"/>
<path d="M497.374 54.0982C497.481 51.1064 495.46 48.1323 494.436 47.0192L490.295 54.0982H484.551V63.1805L473.732 65.8518L481.213 76.2698L489.226 73.0642L495.237 75.602L496.305 69.0573C497.864 67.7662 502.289 65.6381 507.525 67.4546C514.069 69.7251 506.59 60.2421 503.117 59.7078C499.644 59.1736 506.456 54.0982 506.59 49.8241C506.723 45.55 501.915 40.341 503.117 43.0123C504.319 45.6836 497.24 57.8379 497.374 54.0982Z" fill="#2F7610"/>
<g clip-path="url(#clip1_1871_16823)">
<rect width="37.64" height="145.672" transform="translate(462.469 15.5813) rotate(14.4767)" fill="url(#paint0_linear_1871_16823)"/>
<mask id="mask0_1871_16823" style="mask-type:alpha" maskUnits="userSpaceOnUse" x="403" y="35" width="69" height="99">
<ellipse cx="437.356" cy="84.3214" rx="33.0424" ry="49.707" transform="rotate(14.4767 437.356 84.3214)" fill="#D9D9D9"/>
</mask>
<g mask="url(#mask0_1871_16823)">
<rect x="453.893" y="6.14301" width="36.5736" height="173.605" transform="rotate(14.4767 453.893 6.14301)" fill="#FFBD3D"/>
<line x1="460.871" y1="7.9444" x2="417.472" y2="176.038" stroke="#C08506" stroke-width="0.488831"/>
<line x1="464.936" y1="8.99421" x2="421.537" y2="177.087" stroke="#C08506" stroke-width="0.488831"/>
<line x1="468.877" y1="10.0118" x2="425.478" y2="178.105" stroke="#C08506" stroke-width="0.488831"/>
<line x1="471.836" y1="10.7756" x2="428.437" y2="178.869" stroke="#C08506" stroke-width="0.488831"/>
<line x1="475.037" y1="11.6024" x2="431.638" y2="179.696" stroke="#C08506" stroke-width="0.488831"/>
<line x1="477.996" y1="12.3656" x2="434.597" y2="180.459" stroke="#C08506" stroke-width="0.488831"/>
<line x1="481.198" y1="13.1925" x2="437.799" y2="181.286" stroke="#C08506" stroke-width="0.488831"/>
<line x1="483.696" y1="13.8373" x2="440.297" y2="181.931" stroke="#C08506" stroke-width="0.488831"/>
<line x1="485.912" y1="14.4097" x2="442.513" y2="182.503" stroke="#C08506" stroke-width="0.488831"/>
<line x1="456.194" y1="6.737" x2="412.795" y2="174.83" stroke="#C08506" stroke-width="0.488831"/>
</g>
<path opacity="0.8" d="M485.262 42.6552C483.879 48.0114 478.416 51.2324 473.06 49.8495C467.703 48.4666 464.482 43.0035 465.865 37.6473C467.248 32.2911 472.711 29.0701 478.067 30.453C483.424 31.8359 486.645 37.299 485.262 42.6552ZM469.101 38.4828C468.18 42.0519 470.326 45.6922 473.895 46.6137C477.464 47.5351 481.104 45.3888 482.026 41.8198C482.947 38.2507 480.801 34.6104 477.232 33.6889C473.663 32.7674 470.023 34.9137 469.101 38.4828Z" fill="white"/>
</g>
<path d="M462.897 13.8852L462.446 15.6321C462.313 16.1481 462.617 16.6758 463.131 16.8185L497.554 26.3837C498.081 26.5301 498.626 26.2157 498.762 25.6861L499.548 22.6414C499.747 21.8729 498.995 21.2008 498.254 21.4834L494.699 22.8381C494.197 23.0296 493.634 22.7794 493.44 22.2781L492.402 19.6031C492.217 19.1263 491.696 18.8726 491.207 19.0211L485.629 20.7137C485.24 20.8318 484.818 20.6966 484.57 20.3742L481.615 16.5324C481.346 16.1825 480.875 16.0564 480.467 16.2246L475.927 18.0953C475.51 18.2673 475.029 18.1312 474.764 17.7661L472.63 14.8302C472.376 14.48 471.922 14.3388 471.513 14.4832L467.357 15.9536C466.961 16.0938 466.52 15.9651 466.261 15.6341L464.614 13.5275C464.115 12.8889 463.1 13.1003 462.897 13.8852Z" fill="#FE0100"/>
<path d="M429.336 133.987C440.634 133.918 464.806 123.305 471.112 81.406" stroke="white" stroke-width="1.95533"/>
<ellipse cx="466.628" cy="77.5827" rx="20.9324" ry="20.5642" fill="#CF2916"/>
<ellipse opacity="0.6" cx="5.48374" cy="3.02551" rx="5.48374" ry="3.02551" transform="matrix(0.821152 0.57071 -0.584369 0.811488 471.729 60.2595)" fill="#F78173"/>
<path opacity="0.6" d="M465.528 77.2965C458.065 72.9949 464.335 74.8525 457.867 67.5204C457.867 69.0846 457.727 72.8777 457.17 75.5368C456.473 78.8607 459.26 82.1846 466.723 83.7488C472.694 85.0001 476.176 82.1194 477.172 80.5226C475.778 80.8811 471.499 80.7377 465.528 77.2965Z" fill="#F78173"/>
<path d="M465.346 58.7936C462.693 57.6578 456.92 55.3662 455.043 55.286C456.641 57.3572 460.735 61.6398 464.326 62.201C467.917 62.7622 470.174 65.1741 470.854 66.3099C470.752 59.6956 467.488 62.201 468.508 60.5976C469.324 59.3148 473.133 57.1234 474.935 56.188C469.875 55.6268 466.434 57.6913 465.346 58.7936Z" fill="#466F10"/>
<path d="M465.346 58.0573C462.693 56.9215 456.92 54.6299 455.043 54.5497C456.641 56.6208 460.735 60.9035 464.326 61.4647C467.917 62.0259 470.174 64.4378 470.854 65.5736C470.752 58.9593 467.488 61.4647 468.508 59.8612C469.324 58.5785 473.133 56.3871 474.935 55.4517C469.875 54.8905 466.434 56.9549 465.346 58.0573Z" fill="#5C9A0A"/>
<circle cx="448.588" cy="77.5827" r="20.5642" fill="#EF2C15"/>
<ellipse opacity="0.6" cx="456.285" cy="65.8442" rx="5.41889" ry="3.00744" transform="rotate(35.2776 456.285 65.8442)" fill="#F78173"/>
<path opacity="0.6" d="M447.507 77.2965C440.174 72.9949 446.334 74.8525 439.979 67.5204C439.979 69.0846 439.842 72.8777 439.295 75.5368C438.61 78.8607 441.348 82.1846 448.68 83.7488C454.546 85.0001 457.967 82.1194 458.945 80.5226C457.576 80.8811 453.372 80.7377 447.507 77.2965Z" fill="#F78173"/>
<path d="M447.329 58.7936C444.723 57.6578 439.051 55.3662 437.207 55.286C438.777 57.3572 442.799 61.6398 446.327 62.201C449.854 62.7622 452.072 65.1741 452.74 66.3099C452.64 59.6956 449.433 62.201 450.435 60.5976C451.237 59.3148 454.979 57.1234 456.749 56.188C451.778 55.6268 448.398 57.6913 447.329 58.7936Z" fill="#466F10"/>
<path d="M447.329 58.0573C444.723 56.9215 439.051 54.6299 437.207 54.5497C438.777 56.6208 442.799 60.9035 446.327 61.4647C449.854 62.0259 452.072 64.4378 452.74 65.5736C452.64 58.9593 449.433 61.4647 450.435 59.8612C451.237 58.5785 454.979 56.3871 456.749 55.4517C451.778 54.8905 448.398 56.9549 447.329 58.0573Z" fill="#5C9A0A"/>
<g clip-path="url(#clip2_1871_16823)">
<rect x="343.207" y="30.325" width="75.8665" height="100.877" rx="8.89278" transform="rotate(-14.3063 343.207 30.325)" fill="#3D3D3D"/>
<rect x="353.182" y="37.9618" width="60.3042" height="81.1466" rx="5.55799" transform="rotate(-14.3063 353.182 37.9618)" fill="#1A1A1A"/>
<path d="M375.493 59.5254C362.721 64.1926 356.016 52.5052 354.26 46.0782C352.232 32.4862 372.368 31.7996 380.991 32.878C386.942 33.8239 399.718 34.2085 403.209 28.1791C405.977 23.3986 408.37 25.5369 409.746 28.2437C410.428 29.5851 411.289 30.843 412.083 32.1215C414.194 35.5223 410.218 36.9846 406.206 36.1805C401.562 35.2496 399.962 38.6542 392.845 40.4692C385.728 42.2842 391.457 53.6915 375.493 59.5254Z" fill="#EFB7A8"/>
<path d="M366.462 38.1895C358.615 37.9846 356.887 44.6143 357.003 47.9548C354.141 41.0559 360.448 36.2305 364.759 34.3957C369.071 32.5608 379.206 33.3771 382.601 34.0739C385.316 34.6314 391.047 34.1565 393.573 33.8494C387.806 35.3815 374.309 38.3944 366.462 38.1895Z" fill="#DB8170"/>
<path fill-rule="evenodd" clip-rule="evenodd" d="M354.141 44.9897C356.645 51.52 363.219 60.4778 374.667 56.2942C384.16 52.8249 385.982 47.3848 387.396 43.163C388.36 40.2853 389.134 37.9737 392.019 37.238C395.086 36.4558 397.129 35.3783 398.832 34.4798C401.081 33.2936 402.737 32.4195 405.38 32.9493C408.167 33.5079 410.937 32.9727 411.661 31.4537C411.802 31.676 411.943 31.8985 412.081 32.1215C414.192 35.5224 410.216 36.9847 406.204 36.1806C403.561 35.6508 401.904 36.5249 399.656 37.7111C397.953 38.6096 395.91 39.6871 392.843 40.4693C389.958 41.205 389.184 43.5166 388.22 46.3943C386.806 50.6161 384.984 56.0562 375.491 59.5255C362.719 64.1926 356.014 52.5053 354.258 46.0783C354.202 45.7058 354.164 45.343 354.141 44.9897Z" fill="#EB8775"/>
<path d="M402.253 36.2639C402.643 35.2846 401.966 33.7298 401.202 32.4757C400.716 31.6769 400.919 30.5947 401.731 30.1309C401.931 30.017 402.102 29.8595 402.231 29.6701L404.228 26.7569C404.605 26.2056 405.161 25.8009 405.802 25.611C407.099 25.2265 408.49 25.7862 409.16 26.9619L410.364 29.0766L412.394 33.1638C412.542 33.4611 412.597 33.7958 412.554 34.125C412.501 34.5308 412.3 34.9028 411.991 35.1706L411.463 35.6273C411.257 35.8054 411.034 35.9632 410.781 36.0642C409.893 36.4192 408.277 36.7804 406.773 36.2081C405.023 35.5427 403.031 35.9681 402.253 36.2639Z" fill="#EDD7CA"/>
<path d="M403.644 29.9777C403.94 28.9244 405.089 26.6944 407.31 26.2013" stroke="white" stroke-width="0.277899"/>
<ellipse cx="366.276" cy="45.2906" rx="1.43075" ry="0.289671" transform="rotate(-14.3063 366.276 45.2906)" fill="#EB8775"/>
<ellipse cx="370.413" cy="41.9019" rx="1.43075" ry="0.289671" transform="rotate(-14.3063 370.413 41.9019)" fill="#EB8775"/>
<ellipse cx="377.835" cy="39.2473" rx="1.43075" ry="0.289671" transform="rotate(-14.3063 377.835 39.2473)" fill="#EB8775"/>
<ellipse cx="379.495" cy="42.2187" rx="1.43075" ry="0.289671" transform="rotate(-46.1192 379.495 42.2187)" fill="#EB8775"/>
<ellipse cx="374.939" cy="46.9525" rx="1.43075" ry="0.289671" transform="rotate(-46.1192 374.939 46.9525)" fill="#EB8775"/>
<ellipse cx="373.081" cy="45.205" rx="1.43075" ry="0.289671" transform="rotate(-16.5973 373.081 45.205)" fill="#EB8775"/>
<ellipse cx="362.887" cy="48.9937" rx="1.43075" ry="0.289671" transform="rotate(-16.5973 362.887 48.9937)" fill="#EB8775"/>
<ellipse cx="361.381" cy="43.6783" rx="0.770834" ry="0.289671" transform="rotate(-89.4358 361.381 43.6783)" fill="#EB8775"/>
<ellipse cx="365.597" cy="42.5506" rx="0.770834" ry="0.289671" transform="rotate(-31.7879 365.597 42.5506)" fill="#EB8775"/>
<ellipse cx="0.770834" cy="0.289671" rx="0.770834" ry="0.289671" transform="matrix(-0.998465 -0.0553907 -0.0553907 0.998465 370 54.0952)" fill="#EB8775"/>
<ellipse cx="374.821" cy="53.3898" rx="0.770834" ry="0.289671" transform="rotate(-31.7879 374.821 53.3898)" fill="#EB8775"/>
<ellipse cx="378.771" cy="51.3344" rx="0.770834" ry="0.289671" transform="rotate(-31.7879 378.771 51.3344)" fill="#EB8775"/>
<ellipse cx="364.294" cy="52.4883" rx="0.770834" ry="0.289671" transform="rotate(14.5611 364.294 52.4883)" fill="#EB8775"/>
<ellipse cx="385.113" cy="39.6315" rx="0.770834" ry="0.289671" transform="rotate(-59.5159 385.113 39.6315)" fill="#EB8775"/>
<ellipse cx="0.770834" cy="0.289671" rx="0.770834" ry="0.289671" transform="matrix(-0.858036 -0.51359 -0.51359 0.858036 390.414 37.1556)" fill="#EB8775"/>
<ellipse cx="0.770834" cy="0.289671" rx="0.770834" ry="0.289671" transform="matrix(-0.858036 -0.51359 -0.51359 0.858036 383.648 38.8812)" fill="#EB8775"/>
<ellipse cx="382.096" cy="43.9499" rx="0.770834" ry="0.289671" transform="rotate(-59.5159 382.096 43.9499)" fill="#EB8775"/>
<ellipse cx="382.96" cy="47.6367" rx="0.770834" ry="0.289671" transform="rotate(-31.7879 382.96 47.6367)" fill="#EB8775"/>
<ellipse cx="368.811" cy="49.4322" rx="1.43075" ry="0.289671" transform="rotate(11.7039 368.811 49.4322)" fill="#EB8775"/>
<path d="M358.161 48.2313C355.436 45.5984 356.035 40.0116 356.675 37.5473C352.089 40.63 354.18 47.1423 355.798 50.0132C360.777 60.861 369.791 61.247 373.676 60.084C372.644 59.1781 369.868 57.353 367.022 57.2998C363.465 57.2334 361.566 51.5225 358.161 48.2313Z" fill="#DB8070"/>
<path d="M358.08 51.212C359.426 52.2603 362.195 54.6607 362.505 55.8758C362.892 57.3948 358.23 51.7999 358.08 51.212Z" fill="#EFB7A8"/>
<path d="M407.462 69.7695C420.554 66.0959 419.168 52.6933 416.838 46.4511C410.544 34.2348 393.8 45.4419 387.432 51.3546C383.154 55.5993 373.01 63.3751 366.655 60.5212C361.615 58.2585 360.922 61.392 361.387 64.393C361.617 65.8801 361.653 67.4042 361.755 68.9055C362.029 72.899 366.111 71.7624 368.896 68.7662C372.122 65.2973 375.409 67.126 382.246 64.441C389.083 61.756 391.097 74.3614 407.462 69.7695Z" fill="#EFB7A8"/>
<path d="M402.327 47.1771C408.575 42.4266 413.852 46.7974 415.708 49.5766C414.001 42.3051 406.063 42.0736 401.492 43.1034C396.921 44.1332 389.172 50.7167 386.824 53.2655C384.946 55.3046 380.017 58.2672 377.788 59.4937C383.364 57.3676 396.078 51.9277 402.327 47.1771Z" fill="#DB8170"/>
<path fill-rule="evenodd" clip-rule="evenodd" d="M416.297 45.5003C418.08 52.2633 417.977 63.3727 406.242 66.6654C396.51 69.3961 391.854 66.0453 388.24 63.445C385.776 61.6725 383.797 60.2487 381.026 61.337C378.08 62.4941 375.793 62.8129 373.886 63.0788C371.368 63.4297 369.512 63.6883 367.677 65.6622C365.741 67.7439 363.18 68.9279 361.705 68.1174C361.721 68.3806 361.736 68.6433 361.754 68.9054C362.028 72.899 366.11 71.7623 368.896 68.7662C370.731 66.7923 372.586 66.5337 375.104 66.1827C377.011 65.9169 379.299 65.5981 382.245 64.4409C385.016 63.3526 386.995 64.7764 389.458 66.5489C393.072 69.1493 397.729 72.5 407.461 69.7694C420.553 66.0959 419.167 52.6932 416.837 46.451C416.665 46.1168 416.485 45.8 416.297 45.5003Z" fill="#EB8775"/>
<path d="M372.155 66.5244C371.266 65.9575 370.907 64.3002 370.794 62.8363C370.722 61.9039 369.925 61.1443 368.995 61.2423C368.766 61.2664 368.536 61.2384 368.32 61.1605L364.998 59.9624C364.369 59.7356 363.681 59.732 363.05 59.9523C361.773 60.3981 360.971 61.665 361.114 63.0103L361.372 65.4302L362.113 69.9331C362.167 70.2607 362.317 70.5649 362.545 70.8068C362.825 71.1049 363.205 71.2898 363.613 71.3263L364.308 71.3886C364.579 71.4129 364.852 71.4104 365.116 71.3447C366.045 71.114 367.567 70.463 368.454 69.1197C369.485 67.5578 371.351 66.7387 372.155 66.5244Z" fill="#EDD7CA"/>
<path d="M367.353 62.2348C366.497 61.5532 364.262 60.4142 362.171 61.3116" stroke="white" stroke-width="0.277899"/>
<ellipse cx="1.43075" cy="0.289671" rx="1.43075" ry="0.289671" transform="matrix(-0.93079 0.365555 0.365555 0.93079 407.85 52.0404)" fill="#EB8775"/>
<ellipse cx="1.43075" cy="0.289671" rx="1.43075" ry="0.289671" transform="matrix(-0.93079 0.365555 0.365555 0.93079 402.512 51.707)" fill="#EB8775"/>
<ellipse cx="1.43075" cy="0.289671" rx="1.43075" ry="0.289671" transform="matrix(-0.93079 0.365555 0.365555 0.93079 394.941 53.8871)" fill="#EB8775"/>
<ellipse cx="1.43075" cy="0.289671" rx="1.43075" ry="0.289671" transform="matrix(-0.983662 -0.180024 -0.180024 0.983662 395.561 58.0353)" fill="#EB8775"/>
<ellipse cx="1.43075" cy="0.289671" rx="1.43075" ry="0.289671" transform="matrix(-0.983662 -0.180024 -0.180024 0.983662 402.023 59.2157)" fill="#EB8775"/>
<ellipse cx="1.43075" cy="0.289671" rx="1.43075" ry="0.289671" transform="matrix(-0.944659 0.328054 0.328054 0.944659 402.309 55.9962)" fill="#EB8775"/>
<ellipse cx="1.43075" cy="0.289671" rx="1.43075" ry="0.289671" transform="matrix(-0.944659 0.328054 0.328054 0.944659 412.793 53.1154)" fill="#EB8775"/>
<ellipse cx="0.770834" cy="0.289671" rx="0.770834" ry="0.289671" transform="matrix(-0.592185 -0.805802 -0.805802 0.592185 410.346 49.1134)" fill="#EB8775"/>
<ellipse cx="0.770834" cy="0.289671" rx="0.770834" ry="0.289671" transform="matrix(-0.997612 0.0690622 0.0690622 0.997612 406.324 49.8698)" fill="#EB8775"/>
<ellipse cx="409.528" cy="61.8944" rx="0.770834" ry="0.289671" transform="rotate(-38.9234 409.528 61.8944)" fill="#EB8775"/>
<ellipse cx="0.770834" cy="0.289671" rx="0.770834" ry="0.289671" transform="matrix(-0.997612 0.0690622 0.0690622 0.997612 405.17 64.0554)" fill="#EB8775"/>
<ellipse cx="0.770834" cy="0.289671" rx="0.770834" ry="0.289671" transform="matrix(-0.997612 0.0690622 0.0690622 0.997612 400.766 64.6945)" fill="#EB8775"/>
<ellipse cx="0.770834" cy="0.289671" rx="0.770834" ry="0.289671" transform="matrix(-0.638644 0.769502 0.769502 0.638644 412.705 56.7391)" fill="#EB8775"/>
<ellipse cx="0.770834" cy="0.289671" rx="0.770834" ry="0.289671" transform="matrix(-0.915186 -0.403032 -0.403032 0.915186 388.854 59.2902)" fill="#EB8775"/>
<ellipse cx="382.855" cy="59.7391" rx="0.770834" ry="0.289671" transform="rotate(-66.6513 382.855 59.7391)" fill="#EB8775"/>
<ellipse cx="389.355" cy="57.1864" rx="0.770834" ry="0.289671" transform="rotate(-66.6513 389.355 57.1864)" fill="#EB8775"/>
<ellipse cx="0.770834" cy="0.289671" rx="0.770834" ry="0.289671" transform="matrix(-0.915186 -0.403032 -0.403032 0.915186 393.824 61.0317)" fill="#EB8775"/>
<ellipse cx="0.770834" cy="0.289671" rx="0.770834" ry="0.289671" transform="matrix(-0.997612 0.0690622 0.0690622 0.997612 395.203 64.1407)" fill="#EB8775"/>
<ellipse cx="1.43075" cy="0.289671" rx="1.43075" ry="0.289671" transform="matrix(-0.676208 0.73671 0.73671 0.676208 407.742 56.4238)" fill="#EB8775"/>
<path d="M414.928 50.4783C415.601 46.7497 411.851 42.5654 409.891 40.9394C415.415 40.7618 417.522 47.2687 417.886 50.5443C420.182 62.2573 413.092 67.8365 409.26 69.162C409.569 67.8239 410.755 64.7212 413.033 63.0155C415.881 60.8835 414.086 55.1391 414.928 50.4783Z" fill="#DB8070"/>
<path d="M416.736 52.8499C416.256 54.4869 415.411 58.0529 415.87 59.22C416.443 60.679 416.958 53.4146 416.736 52.8499Z" fill="#EFB7A8"/>
<path d="M416.805 106.392C429.897 102.718 428.511 89.3156 426.182 83.0735C419.887 70.8572 403.143 82.0643 396.775 87.977C392.498 92.2217 382.354 99.9975 375.998 97.1436C370.959 94.8808 370.266 98.0144 370.73 101.015C370.96 102.503 370.996 104.027 371.099 105.528C371.372 109.521 375.454 108.385 378.24 105.389C381.466 101.92 384.753 103.748 391.59 101.063C398.426 98.3784 400.441 110.984 416.805 106.392Z" fill="#EFB7A8"/>
<path d="M411.671 83.7994C417.919 79.0488 423.195 83.4197 425.052 86.1989C423.345 78.9274 415.407 78.6959 410.836 79.7257C406.265 80.7555 398.516 87.339 396.168 89.8878C394.29 91.9268 389.361 94.8895 387.132 96.1159C392.708 93.9898 405.422 88.55 411.671 83.7994Z" fill="#DB8170"/>
<path fill-rule="evenodd" clip-rule="evenodd" d="M425.641 82.1226C427.423 88.8857 427.321 99.9951 415.586 103.288C405.854 106.018 401.197 102.668 397.583 100.067C395.12 98.2949 393.141 96.871 390.37 97.9594C387.424 99.1165 385.136 99.4353 383.229 99.7011C380.711 100.052 378.856 100.311 377.021 102.285C375.085 104.366 372.524 105.55 371.049 104.74C371.064 105.003 371.08 105.266 371.098 105.528C371.371 109.521 375.453 108.385 378.239 105.389C380.075 103.415 381.93 103.156 384.448 102.805C386.355 102.539 388.642 102.22 391.589 101.063C394.36 99.975 396.339 101.399 398.802 103.171C402.416 105.772 407.073 109.122 416.805 106.392C429.896 102.718 428.51 89.3155 426.181 83.0734C426.009 82.7391 425.829 82.4224 425.641 82.1226Z" fill="#EB8775"/>
<path d="M381.496 103.147C380.608 102.58 380.249 100.923 380.136 99.4587C380.064 98.5262 379.267 97.7667 378.336 97.8647C378.108 97.8888 377.877 97.8608 377.661 97.7829L374.34 96.5847C373.711 96.358 373.023 96.3544 372.392 96.5746C371.115 97.0204 370.313 98.2874 370.456 99.6327L370.714 102.053L371.455 106.555C371.509 106.883 371.659 107.187 371.886 107.429C372.167 107.727 372.547 107.912 372.954 107.949L373.649 108.011C373.921 108.035 374.194 108.033 374.458 107.967C375.387 107.736 376.909 107.085 377.796 105.742C378.826 104.18 380.692 103.361 381.496 103.147Z" fill="#EDD7CA"/>
<path d="M376.697 98.8571C375.841 98.1754 373.606 97.0365 371.515 97.9339" stroke="white" stroke-width="0.277899"/>
<ellipse cx="1.43075" cy="0.289671" rx="1.43075" ry="0.289671" transform="matrix(-0.93079 0.365555 0.365555 0.93079 417.193 88.6628)" fill="#EB8775"/>
<ellipse cx="1.43075" cy="0.289671" rx="1.43075" ry="0.289671" transform="matrix(-0.93079 0.365555 0.365555 0.93079 411.855 88.3294)" fill="#EB8775"/>
<ellipse cx="1.43075" cy="0.289671" rx="1.43075" ry="0.289671" transform="matrix(-0.93079 0.365555 0.365555 0.93079 404.285 90.5095)" fill="#EB8775"/>
<ellipse cx="1.43075" cy="0.289671" rx="1.43075" ry="0.289671" transform="matrix(-0.983662 -0.180024 -0.180024 0.983662 404.904 94.6576)" fill="#EB8775"/>
<ellipse cx="1.43075" cy="0.289671" rx="1.43075" ry="0.289671" transform="matrix(-0.983662 -0.180024 -0.180024 0.983662 411.367 95.838)" fill="#EB8775"/>
<ellipse cx="1.43075" cy="0.289671" rx="1.43075" ry="0.289671" transform="matrix(-0.944659 0.328054 0.328054 0.944659 411.652 92.6185)" fill="#EB8775"/>
<ellipse cx="1.43075" cy="0.289671" rx="1.43075" ry="0.289671" transform="matrix(-0.944659 0.328054 0.328054 0.944659 422.137 89.7377)" fill="#EB8775"/>
<ellipse cx="0.770834" cy="0.289671" rx="0.770834" ry="0.289671" transform="matrix(-0.592185 -0.805802 -0.805802 0.592185 419.689 85.7357)" fill="#EB8775"/>
<ellipse cx="0.770834" cy="0.289671" rx="0.770834" ry="0.289671" transform="matrix(-0.997612 0.0690622 0.0690622 0.997612 415.668 86.4921)" fill="#EB8775"/>
<ellipse cx="418.872" cy="98.5166" rx="0.770834" ry="0.289671" transform="rotate(-38.9234 418.872 98.5166)" fill="#EB8775"/>
<ellipse cx="0.770834" cy="0.289671" rx="0.770834" ry="0.289671" transform="matrix(-0.997612 0.0690622 0.0690622 0.997612 414.514 100.678)" fill="#EB8775"/>
<ellipse cx="0.770834" cy="0.289671" rx="0.770834" ry="0.289671" transform="matrix(-0.997612 0.0690622 0.0690622 0.997612 410.109 101.317)" fill="#EB8775"/>
<ellipse cx="0.770834" cy="0.289671" rx="0.770834" ry="0.289671" transform="matrix(-0.638644 0.769502 0.769502 0.638644 422.049 93.3614)" fill="#EB8775"/>
<ellipse cx="0.770834" cy="0.289671" rx="0.770834" ry="0.289671" transform="matrix(-0.915186 -0.403032 -0.403032 0.915186 398.197 95.9124)" fill="#EB8775"/>
<ellipse cx="392.198" cy="96.3614" rx="0.770834" ry="0.289671" transform="rotate(-66.6513 392.198 96.3614)" fill="#EB8775"/>
<ellipse cx="398.698" cy="93.8087" rx="0.770834" ry="0.289671" transform="rotate(-66.6513 398.698 93.8087)" fill="#EB8775"/>
<ellipse cx="0.770834" cy="0.289671" rx="0.770834" ry="0.289671" transform="matrix(-0.915186 -0.403032 -0.403032 0.915186 403.168 97.6541)" fill="#EB8775"/>
<ellipse cx="0.770834" cy="0.289671" rx="0.770834" ry="0.289671" transform="matrix(-0.997612 0.0690622 0.0690622 0.997612 404.547 100.763)" fill="#EB8775"/>
<ellipse cx="1.43075" cy="0.289671" rx="1.43075" ry="0.289671" transform="matrix(-0.676208 0.73671 0.73671 0.676208 417.086 93.0461)" fill="#EB8775"/>
<path d="M424.271 87.1006C424.944 83.372 421.194 79.1877 419.235 77.5616C424.758 77.3841 426.866 83.8909 427.23 87.1666C429.526 98.8796 422.436 104.459 418.604 105.784C418.912 104.446 420.099 101.343 422.377 99.6378C425.225 97.5058 423.43 91.7613 424.271 87.1006Z" fill="#DB8070"/>
<path d="M426.08 89.4722C425.6 91.1093 424.755 94.6753 425.214 95.8424C425.787 97.3013 426.302 90.037 426.08 89.4722Z" fill="#EFB7A8"/>
<path d="M383.806 95.0521C370.553 98.0967 365.352 85.667 364.408 79.0716C364.083 65.3329 384.149 67.1529 392.571 69.294C398.359 70.9718 410.988 72.9403 415.201 67.3913C418.541 62.9916 420.65 65.4106 421.679 68.2674C422.19 69.6831 422.888 71.0383 423.517 72.4055C425.189 76.0422 421.061 76.9992 417.181 75.703C412.688 74.2024 410.678 77.382 403.39 78.2989C396.103 79.2157 400.371 91.2463 383.806 95.0521Z" fill="#EFB7A8"/>
<path d="M377.497 72.7596C369.737 71.5816 367.198 77.9453 366.899 81.2744C364.915 74.0734 371.773 70.0687 376.279 68.7837C380.785 67.4986 390.74 69.5675 394.022 70.6805C396.648 71.571 402.393 71.8117 404.937 71.8207C399.024 72.6245 385.258 73.9376 377.497 72.7596Z" fill="#DB8170"/>
<path fill-rule="evenodd" clip-rule="evenodd" d="M364.428 77.9755C366.101 84.7664 371.511 94.4727 383.391 91.7434C393.242 89.4802 395.726 84.3085 397.653 80.295C398.967 77.5594 400.022 75.3618 402.976 74.9901C406.117 74.595 408.277 73.7796 410.079 73.0996C412.457 72.2019 414.21 71.5404 416.766 72.3943C419.462 73.2947 422.277 73.1078 423.184 71.6908C423.296 71.9289 423.408 72.167 423.518 72.4054C425.19 76.0421 421.063 76.9991 417.182 75.703C414.626 74.8491 412.873 75.5106 410.494 76.4083C408.693 77.0882 406.532 77.9037 403.392 78.2988C400.438 78.6704 399.382 80.868 398.069 83.6037C396.141 87.6172 393.658 92.7889 383.807 95.052C370.555 98.0967 365.353 85.667 364.409 79.0715C364.4 78.6946 364.406 78.3294 364.428 77.9755Z" fill="#EB8775"/>
<path d="M413.248 75.2947C413.756 74.3714 413.278 72.7446 412.676 71.4054C412.293 70.5524 412.629 69.5037 413.492 69.1444C413.704 69.0562 413.894 68.9211 414.046 68.7493L416.388 66.1067C416.832 65.6065 417.434 65.2741 418.093 65.1652C419.428 64.9448 420.739 65.6729 421.257 66.9227L422.189 69.1707L423.696 73.4782C423.805 73.7917 423.819 74.1306 423.735 74.4519C423.632 74.8479 423.387 75.1922 423.046 75.4195L422.466 75.8071C422.24 75.9582 421.998 76.087 421.735 76.1558C420.809 76.3978 419.161 76.5555 417.74 75.8008C416.087 74.9232 414.056 75.0977 413.248 75.2947Z" fill="#EDD7CA"/>
<path d="M415.408 69.2298C415.833 68.2214 417.25 66.1513 419.515 65.9379" stroke="white" stroke-width="0.277899"/>
<ellipse cx="376.43" cy="79.7829" rx="1.43075" ry="0.289671" transform="rotate(-7.17093 376.43 79.7829)" fill="#EB8775"/>
<ellipse cx="380.956" cy="76.9343" rx="1.43075" ry="0.289671" transform="rotate(-7.17093 380.956 76.9343)" fill="#EB8775"/>
<ellipse cx="388.649" cy="75.2219" rx="1.43075" ry="0.289671" transform="rotate(-7.17093 388.649 75.2219)" fill="#EB8775"/>
<ellipse cx="389.929" cy="78.3767" rx="1.43075" ry="0.289671" transform="rotate(-38.9838 389.929 78.3767)" fill="#EB8775"/>
<ellipse cx="384.822" cy="82.5079" rx="1.43075" ry="0.289671" transform="rotate(-38.9838 384.822 82.5079)" fill="#EB8775"/>
<ellipse cx="383.195" cy="80.5433" rx="1.43075" ry="0.289671" transform="rotate(-9.46194 383.195 80.5433)" fill="#EB8775"/>
<ellipse cx="372.609" cy="83.0363" rx="1.43075" ry="0.289671" transform="rotate(-9.46194 372.609 83.0363)" fill="#EB8775"/>
<ellipse cx="371.773" cy="77.5748" rx="0.770834" ry="0.289671" transform="rotate(-82.3004 371.773 77.5748)" fill="#EB8775"/>
<ellipse cx="376.097" cy="76.9796" rx="0.770834" ry="0.289671" transform="rotate(-24.6525 376.097 76.9796)" fill="#EB8775"/>
<ellipse cx="0.770834" cy="0.289671" rx="0.770834" ry="0.289671" transform="matrix(-0.983852 -0.178986 -0.178986 0.983852 379.029 88.9816)" fill="#EB8775"/>
<ellipse cx="383.903" cy="88.8806" rx="0.770834" ry="0.289671" transform="rotate(-24.6525 383.903 88.8806)" fill="#EB8775"/>
<ellipse cx="388.077" cy="87.3317" rx="0.770834" ry="0.289671" transform="rotate(-24.6525 388.077 87.3317)" fill="#EB8775"/>
<ellipse cx="373.57" cy="86.6788" rx="0.770834" ry="0.289671" transform="rotate(21.6965 373.57 86.6788)" fill="#EB8775"/>
<ellipse cx="395.825" cy="76.5074" rx="0.770834" ry="0.289671" transform="rotate(-52.3805 395.825 76.5074)" fill="#EB8775"/>
<ellipse cx="0.770834" cy="0.289671" rx="0.770834" ry="0.289671" transform="matrix(-0.787595 -0.616193 -0.616193 0.787595 401.391 74.709)" fill="#EB8775"/>
<ellipse cx="0.770834" cy="0.289671" rx="0.770834" ry="0.289671" transform="matrix(-0.787595 -0.616193 -0.616193 0.787595 394.463 75.5807)" fill="#EB8775"/>
<ellipse cx="392.294" cy="80.4173" rx="0.770834" ry="0.289671" transform="rotate(-52.3805 392.294 80.4173)" fill="#EB8775"/>
<ellipse cx="392.693" cy="84.1829" rx="0.770834" ry="0.289671" transform="rotate(-24.6525 392.693 84.1829)" fill="#EB8775"/>
<ellipse cx="378.429" cy="84.2069" rx="1.43075" ry="0.289671" transform="rotate(18.8393 378.429 84.2069)" fill="#EB8775"/>
<path d="M368.013 81.6928C365.637 78.7418 366.925 73.2727 367.866 70.907C362.933 73.3961 364.198 80.1177 365.448 83.1674C369.041 94.5497 377.937 96.0523 381.936 95.3808C381.024 94.3537 378.497 92.198 375.68 91.7918C372.159 91.284 370.984 85.3815 368.013 81.6928Z" fill="#DB8070"/>
<path d="M367.562 84.6403C368.768 85.8476 371.217 88.5734 371.374 89.8176C371.569 91.3729 367.638 85.2423 367.562 84.6403Z" fill="#EFB7A8"/>
<g opacity="0.6">
<path d="M380.379 81.1329L351.053 37.0047L392.559 72.2034L376.051 64.164L380.379 81.1329Z" fill="white"/>
<path d="M412.172 19.6716L400.769 39.5773L411.394 29.3421L416.615 37.0934L412.172 19.6716Z" fill="white"/>
<path d="M423.664 92.8335L368.771 45.2296C375.345 47.9149 389.909 54.3912 395.581 58.8142C401.253 63.2372 416.666 83.3367 423.664 92.8335Z" fill="white"/>
<path d="M400.016 102.199L362.234 70.5933C363.775 75.6545 368.67 87.0931 375.928 92.3572C383.185 97.6213 395.01 101.112 400.016 102.199Z" fill="white"/>
<path d="M433.303 104.651C432.455 106.08 420.076 109.172 413.993 110.54C429.729 106.527 430.484 90.8983 428.895 83.5856C430.718 90.0119 434.151 103.222 433.303 104.651Z" fill="white"/>
<path d="M424.64 82.754L407.057 63.1283C409.307 63.7336 414.476 65.5078 417.148 67.7616C419.819 70.0155 423.256 78.6956 424.64 82.754Z" fill="white"/>
<path d="M371.53 119.92L368.143 106.637C372.255 116.245 379.207 117.945 383.476 117.49L385.386 117.101C384.844 117.274 384.198 117.413 383.476 117.49L371.53 119.92Z" fill="white"/>
</g>
</g>
<rect x="344.559" y="31.1275" width="73.6433" height="98.6543" rx="7.78118" transform="rotate(-14.3063 344.559 31.1275)" stroke="#9F9A9C" stroke-width="2.2232"/>
<path d="M339.092 219.44L351.738 76.3572L480.532 77.3801L495.975 79.8586L508.176 77.3801L525.172 219.44H339.092Z" fill="#E59A61"/>
<path d="M484.863 219.144L481.908 77.3159L495.802 79.8916L505.508 219.144H484.863Z" fill="#AB604B"/>
<path d="M392.446 89.8109C392.294 95.9713 395.849 107.89 411.294 107.89C426.707 107.89 432.039 95.9829 432.75 89.8109" stroke="black" stroke-width="2.9453" stroke-linecap="round"/>
<path opacity="0.4" fill-rule="evenodd" clip-rule="evenodd" d="M368.595 114.39C371.288 116.127 372.997 118.235 373.325 120.525H373.385V202.258V202.354H373.383C373.234 206.934 362.389 210.631 349.033 210.631C335.677 210.631 324.832 206.934 324.683 202.354H324.681V202.258V121.473C324.68 121.427 324.68 121.382 324.68 121.336C324.68 121.291 324.68 121.245 324.681 121.2V120.525H324.738C325.2 117.301 328.398 114.437 333.228 112.462C338.025 109.164 340.733 102.585 340.968 99.322C346.956 96.6565 358.241 92.3227 356.943 98.7199C355.653 105.076 360.936 108.664 365.195 111.557C366.294 112.303 367.325 113.003 368.157 113.693C368.447 113.933 368.587 114.165 368.595 114.39Z" fill="#23AC9E"/>
<rect x="325.701" y="128.752" width="46.652" height="74.0911" fill="#F8CF00"/>
<ellipse cx="349.028" cy="128.349" rx="23.4124" ry="3.71713" fill="#FFDF3D"/>
<path fill-rule="evenodd" clip-rule="evenodd" d="M357.406 92.4536H340.65V98.6237C340.65 98.6237 340.65 98.6237 340.65 98.6238C340.651 100.619 344.401 102.237 349.028 102.237C353.655 102.237 357.406 100.619 357.406 98.6238C357.406 98.6237 357.406 98.6237 357.406 98.6237V92.4536Z" fill="#4555AC"/>
<ellipse cx="349.028" cy="92.4993" rx="8.37763" ry="3.61333" fill="#5D71DA"/>
<path d="M366.727 121.318L366.727 195.676" stroke="white" stroke-width="1.16519" stroke-linecap="round"/>
<path d="M355.113 104.854C355.924 106.746 357.951 110.801 359.574 111.882C361.196 112.963 364.215 115.216 365.521 116.207" stroke="white" stroke-width="1.16519" stroke-linecap="round"/>
<circle cx="294.379" cy="153.924" r="50.2384" fill="#53C820"/>
<path d="M297.371 117.581C293.784 122.687 288.255 134.293 294.839 139.864C293.615 137.923 292.408 130.748 297.371 117.581Z" fill="#BFF17E"/>
<path d="M293.184 203.506C258.357 203.806 246.016 178.082 244.264 162.82C237.48 132.401 257.331 106.14 268.039 99.1737C264.286 107.805 273.727 141.042 291.847 148.968C307.781 155.938 329.419 159.032 344.224 161.473C341.722 175.359 328.011 203.206 293.184 203.506Z" fill="#48AB1D"/>
<path d="M270.689 97.3564L265.498 101.014C261.344 147.427 301.016 156.649 321.371 155.459C313.484 153.909 296.082 149.7 289.568 145.263C283.055 140.826 279.932 132.952 279.185 129.57L280.719 126.148L277.887 121.9V118.95L275.291 115.882L276.353 111.87L273.639 108.92L274.583 103.374L270.689 102.548V97.3564Z" fill="#BFF17E"/>
<path d="M251.609 142.314C253.19 151.904 260.179 171.91 275.482 175.215C267.014 174.195 250.385 166.187 251.609 142.314Z" fill="#53C820"/>
<path d="M259.811 153.394C262.313 151.873 267.221 148.025 266.829 144.805C267.532 147.014 267.114 151.824 259.811 153.394Z" fill="#53C820"/>
<path d="M263.512 162.07C266.306 161.189 271.989 158.622 272.376 155.402C272.533 157.715 270.98 162.286 263.512 162.07Z" fill="#53C820"/>
</g>
<defs>
<linearGradient id="paint0_linear_1871_16823" x1="0" y1="72.8359" x2="37.64" y2="72.8359" gradientUnits="userSpaceOnUse">
<stop offset="0.642471" stop-color="#FE0100"/>
<stop offset="1" stop-color="#C60302"/>
</linearGradient>
<clipPath id="clip0_1871_16823">
<rect width="560" height="160" fill="white"/>
</clipPath>
<clipPath id="clip1_1871_16823">
<rect width="37.64" height="145.672" fill="white" transform="translate(462.469 15.5813) rotate(14.4767)"/>
</clipPath>
<clipPath id="clip2_1871_16823">
<rect x="343.207" y="30.325" width="75.8665" height="100.877" rx="8.89278" transform="rotate(-14.3063 343.207 30.325)" fill="white"/>
</clipPath>
</defs>
</svg>
