<svg width="131" height="120" viewBox="0 0 131 120" fill="none" xmlns="http://www.w3.org/2000/svg">
<path d="M3.91146 41.1436C2.1088 36.8968 4.38747 33.4541 9.00101 33.4541H94.869C97.5053 33.4541 100.477 35.4214 101.508 37.8481L124.642 92.3483C126.444 96.595 124.165 100.038 119.552 100.038H33.684C31.0477 100.038 28.0755 98.0705 27.0454 95.6438L3.91146 41.1436Z" fill="#4F1D08"/>
<g clip-path="url(#clip0_1121_15545)">
<rect width="96.6684" height="69.4603" rx="4.77346" transform="matrix(1 0 0.390731 0.920505 2.96387 33.7124)" fill="#CE4B14"/>
<path d="M-4.56055 30.793L63.2134 63.1013C64.1864 63.5652 65.1876 63.5743 65.7827 63.1247L108.58 30.793" stroke="#4F1D08" stroke-width="1.19336"/>
</g>
<g clip-path="url(#clip1_1121_15545)">
<rect width="96.6684" height="69.4603" rx="4.77346" transform="matrix(1 0 0.390731 0.920505 4.15723 27.7456)" fill="#ED5A1B"/>
<path d="M-3.36719 24.8267L64.4067 57.135C65.3797 57.5989 66.381 57.608 66.9761 57.1584L109.773 24.8267" stroke="#4F1D08" stroke-width="1.19336"/>
</g>
<g clip-path="url(#clip2_1121_15545)">
<rect width="96.6684" height="69.4603" rx="4.77346" transform="matrix(1 0 0.390731 0.920505 6.54395 21.7788)" fill="#FF6D2E"/>
<path d="M10.1621 24.6431L34.424 81.1798C34.8667 81.9703 36.4707 83.5733 39.3446 83.6617H124.457" stroke="#FFF5F0" stroke-width="0.596682" stroke-linecap="round"/>
<path opacity="0.4" d="M66.793 51.1682L7.49316 22.8995C4.9943 21.7083 4.70163 18.8599 7.07811 18.8599H103.797C106.198 18.8599 108.326 21.7563 106.781 22.9229L69.3623 51.1916C68.7672 51.6412 67.766 51.6321 66.793 51.1682Z" fill="#FF6D2E" stroke="#4F1D08" stroke-width="1.19336"/>
<path opacity="0.4" d="M63.5429 54.5093L9.11533 24.0545L9.11523 23.6416L67.6106 51.3968H69.3987L66.3111 54.195C65.5516 54.8833 64.4374 55.0098 63.5429 54.5093Z" fill="#4F1D08"/>
<g opacity="0.6">
<rect width="29.6849" height="29.6849" rx="14.8425" transform="matrix(1 0 0.390731 0.920505 79.522 12.2319)" fill="#4F1D08"/>
</g>
<path d="M12.5483 23.6641L67.4899 49.615" stroke="#FFF5F0" stroke-width="0.596682" stroke-linecap="round"/>
</g>
<rect width="29.6849" height="29.6849" rx="14.8425" transform="matrix(1 0 0.390731 0.920505 84.2646 4.77344)" fill="#274F08"/>
<path d="M107.058 23.6943C106.412 23.6943 105.78 23.576 105.161 23.3393C104.543 23.1027 103.99 22.7781 103.503 22.3656C103.016 21.9532 102.646 21.4833 102.392 20.9558H103.714C103.965 21.4258 104.362 21.8146 104.904 22.1222C105.448 22.4265 106.008 22.5786 106.585 22.5786C107.048 22.5786 107.417 22.4789 107.692 22.2794C107.971 22.08 108.139 21.8061 108.197 21.4579C108.257 21.1063 108.193 20.709 108.005 20.2662C107.813 19.8131 107.533 19.4091 107.166 19.0542C106.801 18.6958 106.387 18.4135 105.925 18.2073C105.463 18.001 104.99 17.8962 104.508 17.8928C104.161 17.8895 103.827 17.9385 103.507 18.0399C103.185 18.138 102.939 18.2647 102.77 18.4203L101.432 18.2783L99.9453 13.1665H105.807L106.281 14.2822H101.565L102.468 17.3452H102.534C102.694 17.1761 102.925 17.0358 103.226 16.9243C103.528 16.8127 103.868 16.7569 104.246 16.7569C104.936 16.7569 105.616 16.909 106.285 17.2133C106.957 17.5142 107.558 17.9267 108.089 18.4507C108.623 18.9747 109.033 19.5731 109.319 20.2459C109.6 20.9085 109.69 21.5002 109.588 22.0208C109.488 22.5381 109.22 22.9471 108.786 23.248C108.351 23.5455 107.775 23.6943 107.058 23.6943Z" fill="#274F08"/>
<path d="M93.712 4.45821L90.6734 9.3287" stroke="#274F08" stroke-width="1.1138"/>
<g clip-path="url(#clip3_1121_15545)">
<rect width="29.6849" height="29.6849" rx="14.8425" transform="matrix(1 0 0.390731 0.920505 87.2476 0)" fill="#16A010"/>
<path d="M101.435 13.0465L107.41 17.5997L114.345 9.72559" stroke="white" stroke-width="1.79005" stroke-linecap="round" stroke-linejoin="round"/>
<path d="M96.0376 14.8838C98.0823 17.9507 103.886 24.2798 110.745 25.0605" stroke="#FFF5F0" stroke-width="0.596682" stroke-linecap="round"/>
</g>
<rect x="0.774495" y="0.512627" width="28.5711" height="28.5711" rx="14.2856" transform="matrix(1 0 0.390731 0.920505 87.0473 0.0407514)" stroke="#274F08" stroke-width="1.1138"/>
<path d="M122.196 22.6091L119.15 27.5105" stroke="#274F08" stroke-width="1.1138"/>
<ellipse opacity="0.2" cx="73.5129" cy="118.098" rx="55.6462" ry="1.90222" fill="#1E1E1E"/>
<defs>
<clipPath id="clip0_1121_15545">
<rect width="96.6684" height="69.4603" rx="4.77346" transform="matrix(1 0 0.390731 0.920505 2.96387 33.7124)" fill="white"/>
</clipPath>
<clipPath id="clip1_1121_15545">
<rect width="96.6684" height="69.4603" rx="4.77346" transform="matrix(1 0 0.390731 0.920505 4.15723 27.7456)" fill="white"/>
</clipPath>
<clipPath id="clip2_1121_15545">
<rect width="96.6684" height="69.4603" rx="4.77346" transform="matrix(1 0 0.390731 0.920505 6.54395 21.7788)" fill="white"/>
</clipPath>
<clipPath id="clip3_1121_15545">
<rect width="29.6849" height="29.6849" rx="14.8425" transform="matrix(1 0 0.390731 0.920505 87.2476 0)" fill="white"/>
</clipPath>
</defs>
</svg>
