<svg width="40" height="40" viewBox="0 0 40 40" fill="none" xmlns="http://www.w3.org/2000/svg">
<rect x="0.5" y="0.5" width="39" height="39" rx="7.5" fill="white"/>
<rect x="0.5" y="0.5" width="39" height="39" rx="7.5" stroke="#ECECEC"/>
<path fill-rule="evenodd" clip-rule="evenodd" d="M9.5 14C9.5 13.4033 9.73705 12.831 10.159 12.409C10.581 11.9871 11.1533 11.75 11.75 11.75H28.25C28.8467 11.75 29.419 11.9871 29.841 12.409C30.2629 12.831 30.5 13.4033 30.5 14V26C30.5 26.5967 30.2629 27.169 29.841 27.591C29.419 28.0129 28.8467 28.25 28.25 28.25H11.75C11.1533 28.25 10.581 28.0129 10.159 27.591C9.73705 27.169 9.5 26.5967 9.5 26V14ZM11 24.06V26C11 26.414 11.336 26.75 11.75 26.75H28.25C28.4489 26.75 28.6397 26.671 28.7803 26.5303C28.921 26.3897 29 26.1989 29 26V24.06L26.31 21.371C26.0287 21.0901 25.6475 20.9323 25.25 20.9323C24.8525 20.9323 24.4713 21.0901 24.19 21.371L23.31 22.25L24.28 23.22C24.3537 23.2887 24.4128 23.3715 24.4538 23.4635C24.4948 23.5555 24.5168 23.6548 24.5186 23.7555C24.5204 23.8562 24.5018 23.9562 24.4641 24.0496C24.4264 24.143 24.3703 24.2278 24.299 24.299C24.2278 24.3703 24.143 24.4264 24.0496 24.4641C23.9562 24.5018 23.8562 24.5204 23.7555 24.5186C23.6548 24.5168 23.5555 24.4948 23.4635 24.4538C23.3715 24.4128 23.2887 24.3537 23.22 24.28L18.06 19.121C17.7787 18.8401 17.3975 18.6823 17 18.6823C16.6025 18.6823 16.2213 18.8401 15.94 19.121L11 24.061V24.06ZM21.125 16.25C21.125 15.9516 21.2435 15.6655 21.4545 15.4545C21.6655 15.2435 21.9516 15.125 22.25 15.125C22.5484 15.125 22.8345 15.2435 23.0455 15.4545C23.2565 15.6655 23.375 15.9516 23.375 16.25C23.375 16.5484 23.2565 16.8345 23.0455 17.0455C22.8345 17.2565 22.5484 17.375 22.25 17.375C21.9516 17.375 21.6655 17.2565 21.4545 17.0455C21.2435 16.8345 21.125 16.5484 21.125 16.25Z" fill="#16A34A"/>
</svg>
