<svg width="40" height="40" viewBox="0 0 40 40" fill="none" xmlns="http://www.w3.org/2000/svg">
<rect x="0.5" y="0.5" width="39" height="39" rx="7.5" fill="white"/>
<rect x="0.5" y="0.5" width="39" height="39" rx="7.5" stroke="#ECECEC"/>
<path d="M13.625 9.5C12.589 9.5 11.75 10.34 11.75 11.375V28.625C11.75 29.66 12.59 30.5 13.625 30.5H26.375C27.41 30.5 28.25 29.66 28.25 28.625V20.75C28.25 19.7554 27.8549 18.8016 27.1517 18.0983C26.4484 17.3951 25.4946 17 24.5 17H22.625C22.1277 17 21.6508 16.8025 21.2992 16.4508C20.9475 16.0992 20.75 15.6223 20.75 15.125V13.25C20.75 12.2554 20.3549 11.3016 19.6517 10.5983C18.9484 9.89509 17.9946 9.5 17 9.5H13.625Z" fill="#16A34A"/>
<path d="M20.9707 9.81592C21.7972 10.7689 22.2515 11.9885 22.2497 13.2499V15.1249C22.2497 15.3319 22.4177 15.4999 22.6247 15.4999H24.4997C25.7612 15.4982 26.9807 15.9524 27.9337 16.7789C27.4937 15.1056 26.6172 13.5792 25.3938 12.3558C24.1704 11.1324 22.644 10.2559 20.9707 9.81592Z" fill="#16A34A"/>
</svg>
