<svg width="64" height="65" viewBox="0 0 64 65" fill="none" xmlns="http://www.w3.org/2000/svg">
<g clip-path="url(#clip0_1699_15715)">
<path d="M44.0045 29.8314C46.5527 29.8312 49.057 30.4949 51.2706 31.7571C53.4842 33.0193 55.3307 34.8364 56.6283 37.0295C57.9259 39.2225 58.6297 41.7158 58.6704 44.2636C58.7112 46.8115 58.0874 49.326 56.8605 51.5594L57.8899 55.0554C58.026 55.5174 58.035 56.0075 57.9161 56.4743C57.7972 56.941 57.5547 57.367 57.2141 57.7076C56.8735 58.0482 56.4475 58.2907 55.9808 58.4096C55.514 58.5285 55.0239 58.5195 54.5619 58.3834L51.0685 57.354C49.1084 58.4304 46.9281 59.0442 44.6943 59.1487C42.4605 59.2532 40.2325 58.8454 38.1804 57.9567C36.1284 57.068 34.3067 55.7219 32.8548 54.0212C31.4028 52.3204 30.3589 50.3102 29.803 48.1442C29.2471 45.9782 29.1938 43.7138 29.6472 41.524C30.1007 39.3342 31.0488 37.2772 32.4192 35.5101C33.7896 33.7429 35.5459 32.3126 37.5539 31.3284C39.5619 30.3441 41.7683 29.8321 44.0045 29.8314ZM29.3379 8.49805C34.6443 8.49878 39.8011 10.2573 44.0023 13.499C48.2035 16.7406 51.2126 21.2826 52.5592 26.4154C48.5232 24.5023 43.963 23.9954 39.6053 24.9752C35.2477 25.9551 31.3435 28.3654 28.5149 31.822C25.6863 35.2786 24.0961 39.5825 23.9978 44.0479C23.8995 48.5132 25.2988 52.883 27.9725 56.4607C24.1136 56.2459 20.3644 55.0975 17.0472 53.114L9.98054 55.194C9.51703 55.3308 9.02523 55.34 8.55691 55.2208C8.08859 55.1016 7.66107 54.8583 7.31935 54.5166C6.97764 54.1749 6.73436 53.7473 6.61514 53.279C6.49592 52.8107 6.50515 52.3189 6.64188 51.8554L8.72188 44.7887C6.5497 41.1455 5.38185 36.9917 5.33726 32.7503C5.29268 28.5089 6.37295 24.3315 8.46807 20.6434C10.5632 16.9554 13.5983 13.8884 17.2643 11.755C20.9303 9.62149 25.0963 8.4977 29.3379 8.49805Z" fill="#ECECEC"/>
</g>
<defs>
<clipPath id="clip0_1699_15715">
<rect width="64" height="64" fill="white" transform="translate(0 0.5)"/>
</clipPath>
</defs>
</svg>
