<svg width="120" height="108" viewBox="0 0 120 108" fill="none" xmlns="http://www.w3.org/2000/svg">
<rect width="80.4712" height="80.4719" rx="40.2356" transform="matrix(1 0 0.390728 0.920506 0 13.9404)" fill="#991B1B"/>
<path d="M62.0386 65.81C60.2863 65.81 58.572 65.4893 56.8959 64.8477C55.2197 64.2062 53.7212 63.3264 52.4003 62.2083C51.0794 61.0901 50.0757 59.8162 49.3892 58.3865H52.9735C53.6536 59.6604 54.7282 60.7144 56.1973 61.5484C57.6725 62.3732 59.1917 62.7856 60.7548 62.7856C62.0093 62.7856 63.0097 62.5153 63.7559 61.9746C64.512 61.4338 64.9685 60.6915 65.1254 59.7475C65.2883 58.7944 65.115 57.7175 64.6053 56.5169C64.084 55.2888 63.3255 54.1936 62.3296 53.2313C61.3397 52.2598 60.2184 51.4945 58.9655 50.9355C57.7127 50.3764 56.4322 50.0923 55.124 50.0832C54.1842 50.074 53.2799 50.2069 52.4109 50.4818C51.538 50.7476 50.8725 51.0913 50.4142 51.5129L46.786 51.128L42.7559 37.2707H58.6462L59.93 40.2951H47.1461L49.5953 48.5985H49.7745C50.2073 48.1402 50.8324 47.7599 51.6498 47.4574C52.4673 47.155 53.3888 47.0038 54.4143 47.0038C56.2861 47.0038 58.1288 47.4162 59.9425 48.241C61.7623 49.0567 63.3918 50.1748 64.8311 51.5954C66.2804 53.0159 67.3921 54.6381 68.1663 56.4619C68.9288 58.2582 69.1715 59.8621 68.8944 61.2734C68.6234 62.6757 67.8994 63.7846 66.7223 64.6003C65.5413 65.4068 63.9801 65.81 62.0386 65.81Z" fill="#991B1B"/>
<path d="M25.6072 13.086L17.3699 26.2893" stroke="#991B1B" stroke-width="3.01934"/>
<g clip-path="url(#clip0_1445_15032)">
<rect width="80.4712" height="80.4719" rx="40.2356" transform="matrix(1 0 0.390728 0.920506 8.08594 1)" fill="#EF4444"/>
<path d="M31.9102 41.3486C37.4529 49.6627 53.1868 66.8201 71.7801 68.9364" stroke="#FFF5F0" stroke-width="1.61752" stroke-linecap="round"/>
<path d="M58.8062 17.6584C60.3701 17.7564 62.183 18.9925 62.8156 20.3921L72.0158 40.7491C72.6244 42.0959 71.9106 43.0936 70.4057 42.9993L68.5895 42.8855C67.0853 42.7913 65.3374 41.6404 64.6462 40.2891L54.1934 19.8536C53.4744 18.4479 54.1727 17.3681 55.7373 17.4661L58.8062 17.6584ZM74.9514 54.2695C73.6491 54.1879 72.3322 53.7049 71.0007 52.8205C69.6635 51.9242 68.7203 50.8924 68.1711 49.7252C67.6013 48.568 67.5846 47.6058 68.1209 46.8384C68.6572 46.0709 69.5765 45.728 70.8788 45.8096C72.1284 45.8879 73.4256 46.3697 74.7703 47.255C76.1149 48.1403 77.0722 49.1615 77.642 50.3186C78.0037 51.0965 78.1172 51.7959 77.9823 52.4168C77.855 53.0268 77.5299 53.5042 77.007 53.849C76.4784 54.1821 75.7932 54.3223 74.9514 54.2695Z" fill="white"/>
</g>
<rect x="2.09954" y="1.38966" width="77.4519" height="77.4525" rx="38.7259" transform="matrix(1 0 0.390728 0.920506 7.54296 1.11047)" stroke="#991B1B" stroke-width="3.01934"/>
<path d="M102.826 62.2899L94.5684 75.5769" stroke="#991B1B" stroke-width="3.01934"/>
<ellipse opacity="0.2" cx="60.4272" cy="104.542" rx="52.3237" ry="1.78865" fill="#1E1E1E"/>
<defs>
<clipPath id="clip0_1445_15032">
<rect width="80.4712" height="80.4719" rx="40.2356" transform="matrix(1 0 0.390728 0.920506 8.08594 1)" fill="white"/>
</clipPath>
</defs>
</svg>
