<svg width="121" height="106" viewBox="0 0 121 106" fill="none" xmlns="http://www.w3.org/2000/svg">
<rect width="80.4712" height="80.4719" rx="40.2356" transform="matrix(1 0 0.390728 0.920506 0.5 12.9404)" fill="#EA580C"/>
<path d="M62.5366 64.81C60.7843 64.81 59.0701 64.4893 57.3939 63.8477C55.7178 63.2062 54.2192 62.3264 52.8984 61.2083C51.5775 60.0901 50.5738 58.8162 49.8872 57.3865H53.4715C54.1516 58.6604 55.2263 59.7144 56.6954 60.5484C58.1706 61.3732 59.6897 61.7856 61.2529 61.7856C62.5074 61.7856 63.5077 61.5153 64.2539 60.9746C65.01 60.4338 65.4666 59.6915 65.6234 58.7475C65.7863 57.7944 65.613 56.7175 65.1034 55.5169C64.5821 54.2888 63.8235 53.1936 62.8276 52.2313C61.8378 51.2598 60.7164 50.4945 59.4636 49.9355C58.2107 49.3764 56.9302 49.0923 55.6221 49.0832C54.6823 49.074 53.7779 49.2069 52.9089 49.4818C52.0361 49.7476 51.3705 50.0913 50.9123 50.5129L47.2841 50.128L43.254 36.2707H59.1442L60.428 39.2951H47.6441L50.0934 47.5985H50.2726C50.7053 47.1402 51.3304 46.7599 52.1479 46.4574C52.9654 46.155 53.8868 46.0038 54.9123 46.0038C56.7841 46.0038 58.6269 46.4162 60.4406 47.241C62.2603 48.0567 63.8899 49.1748 65.3292 50.5954C66.7785 52.0159 67.8902 53.6381 68.6643 55.4619C69.4268 57.2582 69.6695 58.8621 69.3924 60.2734C69.1214 61.6757 68.3974 62.7846 67.2203 63.6003C66.0393 64.4068 64.4781 64.81 62.5366 64.81Z" fill="#EA580C"/>
<path d="M26.1091 12.086L17.8719 25.2893" stroke="#EA580C" stroke-width="3.01934"/>
<g clip-path="url(#clip0_1550_27416)">
<rect width="80.4712" height="80.4719" rx="40.2356" transform="matrix(1 0 0.390728 0.920506 8.58594 0)" fill="#F97316"/>
<path d="M32.4102 40.3486C37.9529 48.6627 53.6868 65.8201 72.2801 67.9364" stroke="#FFF5F0" stroke-width="1.61752" stroke-linecap="round"/>
<path d="M59.3043 16.6579C60.8682 16.7559 62.6811 17.992 63.3136 19.3916L72.5138 39.7486C73.1225 41.0955 72.4086 42.0931 70.9037 41.9988L69.0875 41.885C67.5833 41.7908 65.8355 40.6399 65.1443 39.2886L54.6914 18.8531C53.9724 17.4474 54.6707 16.3676 56.2354 16.4657L59.3043 16.6579ZM75.4494 53.269C74.1472 53.1874 72.8303 52.7044 71.4988 51.82C70.1615 50.9237 69.2183 49.892 68.6692 48.7247C68.0994 47.5676 68.0826 46.6053 68.6189 45.8379C69.1553 45.0705 70.0746 44.7276 71.3768 44.8091C72.6264 44.8874 73.9236 45.3692 75.2683 46.2545C76.613 47.1398 77.5702 48.161 78.14 49.3181C78.5018 50.096 78.6152 50.7954 78.4804 51.4163C78.353 52.0263 78.0279 52.5037 77.505 52.8486C76.9765 53.1816 76.2913 53.3218 75.4494 53.269Z" fill="white"/>
</g>
<rect x="2.09954" y="1.38966" width="77.4519" height="77.4525" rx="38.7259" transform="matrix(1 0 0.390728 0.920506 8.04296 0.110469)" stroke="#EA580C" stroke-width="3.01934"/>
<path d="M103.328 61.2899L95.0703 74.5769" stroke="#EA580C" stroke-width="3.01934"/>
<ellipse opacity="0.2" cx="60.9291" cy="103.542" rx="52.3237" ry="1.78865" fill="#1E1E1E"/>
<defs>
<clipPath id="clip0_1550_27416">
<rect width="80.4712" height="80.4719" rx="40.2356" transform="matrix(1 0 0.390728 0.920506 8.58594 0)" fill="white"/>
</clipPath>
</defs>
</svg>
