<svg width="850" height="990" viewBox="0 0 850 990" fill="none" xmlns="http://www.w3.org/2000/svg">
<g clip-path="url(#clip0_739_1290)">
<rect width="850" height="990" fill="#F97316"/>
<path fill-rule="evenodd" clip-rule="evenodd" d="M617.711 965.601C561.558 995.314 532.804 1078.36 469.346 1081.39C418.869 1083.8 391.93 1017.98 361.229 977.844C330.919 938.218 278.72 896.338 290.775 847.927C305.299 789.602 399.492 784.14 423.215 728.914C440.956 687.611 372.098 634.837 398.067 598.146C423.228 562.597 489.814 607.236 526.236 583.355C570.93 554.05 564.452 458.589 617.711 454.129C668.35 449.889 668.66 551.341 716.875 567.39C775.878 587.031 849.848 511.469 900.084 548.121C943.467 579.773 906.348 653.33 908.224 706.999C909.793 751.902 924.252 797.38 910.287 840.085C896.623 881.868 869.157 921.629 830.935 943.347C794.019 964.322 748.048 951.855 705.818 956.263C676.072 959.367 644.147 951.613 617.711 965.601Z" fill="#FB923C"/>
<path fill-rule="evenodd" clip-rule="evenodd" d="M150.031 29.3017C185.558 10.502 203.75 -42.0427 243.898 -43.9593C275.834 -45.4838 292.878 -3.84119 312.302 21.5554C331.479 46.6277 364.504 73.1257 356.877 103.756C347.688 140.659 288.094 144.115 273.085 179.058C261.861 205.19 305.425 238.581 288.995 261.797C273.077 284.289 230.949 256.045 207.906 271.155C179.628 289.697 183.727 350.096 150.031 352.918C117.992 355.601 117.797 291.411 87.2917 281.256C49.9615 268.829 3.16242 316.639 -28.6212 293.448C-56.0685 273.421 -32.5843 226.881 -33.7709 192.924C-34.7637 164.513 -43.9118 135.738 -35.0763 108.718C-26.4315 82.2809 -9.05405 57.1237 15.1282 43.3827C38.4846 30.1111 67.5689 37.9993 94.2871 35.2105C113.107 33.2461 133.305 38.1523 150.031 29.3017Z" fill="#FB923C"/>
<rect x="63.3562" y="528.613" width="593.595" height="449.158" stroke="#4F1D08" stroke-width="4.87553"/>
<rect width="535.089" height="454.034" transform="translate(60.9189 526.175)" fill="#4F1D08"/>
<g clip-path="url(#clip1_739_1290)">
<rect width="465.613" height="454.034" transform="translate(193.691 526.175)" fill="#FF6D2E"/>
<g clip-path="url(#clip2_739_1290)">
<rect x="248.541" y="702.303" width="346.162" height="254.746" rx="4.87553" fill="#4F1D08"/>
<line x1="425.278" y1="702.303" x2="425.278" y2="961.853" stroke="#4F1D08" stroke-width="7.31329"/>
</g>
<g clip-path="url(#clip3_739_1290)">
<rect x="253.416" y="697.428" width="346.162" height="254.746" rx="4.87553" fill="#FFF5F0"/>
<circle cx="445.999" cy="824.801" r="4.87553" fill="#4F1D08"/>
<circle cx="406.995" cy="824.801" r="4.87553" fill="#4F1D08"/>
<g opacity="0.8">
<rect x="478.206" y="788.166" width="70.6952" height="41.442" rx="4.87553" fill="#39643B"/>
<path d="M493.734 790.211L514.996 757.475L536.566 790.211" stroke="black" stroke-width="1.21888"/>
<rect x="480.034" y="788.166" width="70.6952" height="41.442" rx="4.87553" fill="#6CB46F"/>
<rect x="480.034" y="788.166" width="69.7881" height="41.442" rx="4.87553" fill="#4C884E"/>
</g>
<path d="M503.785 804.839C503.366 804.839 502.951 804.976 502.542 805.249C502.142 805.512 501.766 805.882 501.415 806.36C501.074 806.828 500.772 807.37 500.509 807.984C500.245 808.588 500.036 809.237 499.88 809.929C499.733 810.621 499.66 811.319 499.66 812.021C499.66 812.976 499.821 813.727 500.143 814.273C500.465 814.81 500.879 815.078 501.386 815.078C501.805 815.078 502.215 814.946 502.615 814.683C503.024 814.41 503.4 814.039 503.741 813.571C504.092 813.093 504.399 812.552 504.663 811.948C504.926 811.333 505.131 810.68 505.277 809.988C505.433 809.295 505.511 808.598 505.511 807.896C505.511 806.94 505.35 806.195 505.028 805.658C504.706 805.112 504.292 804.839 503.785 804.839ZM497.466 811.831C497.466 811.187 497.564 810.524 497.759 809.841C497.954 809.159 498.237 808.506 498.607 807.881C498.978 807.257 499.426 806.697 499.953 806.199C500.489 805.702 501.089 805.307 501.752 805.015C502.415 804.722 503.137 804.576 503.917 804.576C505.106 804.576 506.037 804.883 506.71 805.497C507.383 806.102 507.72 806.97 507.72 808.101C507.72 808.744 507.617 809.407 507.412 810.09C507.217 810.763 506.935 811.411 506.564 812.035C506.193 812.659 505.74 813.22 505.204 813.717C504.677 814.215 504.077 814.61 503.405 814.902C502.742 815.195 502.025 815.341 501.255 815.341C500.065 815.341 499.134 815.039 498.461 814.434C497.798 813.82 497.466 812.952 497.466 811.831ZM513.42 808.057C513.206 808.057 512.967 808.198 512.703 808.481C512.45 808.764 512.191 809.154 511.928 809.651C511.665 810.139 511.416 810.69 511.182 811.304C510.958 811.918 510.763 812.562 510.597 813.235L510.875 811.714C511.216 810.68 511.558 809.846 511.899 809.212C512.24 808.579 512.591 808.115 512.952 807.823C513.313 807.53 513.698 807.384 514.108 807.384C514.654 807.384 515.073 807.569 515.365 807.94C515.668 808.31 515.819 808.857 515.819 809.578C515.819 810.027 515.755 810.509 515.629 811.026C515.502 811.543 515.317 812.055 515.073 812.562C514.839 813.069 514.546 813.537 514.195 813.966C513.844 814.385 513.44 814.722 512.981 814.975C512.533 815.219 512.031 815.341 511.475 815.341C511.163 815.341 510.885 815.273 510.641 815.136C510.397 815 510.217 814.81 510.1 814.566L510.217 814.317C510.334 814.541 510.461 814.702 510.597 814.8C510.734 814.897 510.895 814.946 511.08 814.946C511.382 814.946 511.675 814.829 511.957 814.595C512.25 814.351 512.513 814.029 512.747 813.63C512.991 813.22 513.206 812.767 513.391 812.269C513.576 811.772 513.718 811.265 513.815 810.748C513.922 810.231 513.976 809.749 513.976 809.3C513.976 808.832 513.927 808.51 513.83 808.335C513.732 808.15 513.596 808.057 513.42 808.057ZM511.036 805.468C511.377 805.439 511.704 805.4 512.016 805.351C512.338 805.293 512.64 805.215 512.923 805.117L509.749 816.306C509.612 816.774 509.651 817.086 509.866 817.242C510.08 817.398 510.427 817.476 510.904 817.476L510.817 817.784C510.592 817.774 510.28 817.759 509.88 817.74C509.481 817.73 509.061 817.725 508.623 817.725C508.262 817.725 507.896 817.73 507.526 817.74C507.155 817.759 506.882 817.774 506.707 817.784L506.794 817.476C507.145 817.476 507.399 817.408 507.555 817.272C507.711 817.145 507.838 816.911 507.935 816.57L511.036 805.468ZM508.125 809.973C508.496 809.603 508.837 809.232 509.149 808.861C509.471 808.481 509.783 808.037 510.085 807.53C510.388 807.014 510.69 806.365 510.992 805.585L511.036 805.819C510.831 806.492 510.587 807.087 510.305 807.604C510.022 808.111 509.71 808.569 509.369 808.978C509.037 809.388 508.676 809.783 508.286 810.163L508.125 809.973ZM517.987 811.918C518.445 811.743 518.865 811.562 519.245 811.377C519.635 811.182 519.962 810.977 520.225 810.763C520.586 810.441 520.878 810.066 521.103 809.637C521.327 809.198 521.439 808.72 521.439 808.203C521.439 807.979 521.42 807.833 521.381 807.764C521.342 807.696 521.283 807.662 521.205 807.662C520.981 807.662 520.737 807.769 520.474 807.984C520.21 808.198 519.952 808.496 519.698 808.876C519.445 809.247 519.211 809.666 518.996 810.134C518.792 810.602 518.626 811.094 518.499 811.611C518.372 812.128 518.309 812.64 518.309 813.147C518.309 813.664 518.406 814.029 518.601 814.244C518.806 814.449 519.074 814.551 519.406 814.551C519.689 814.551 520.025 814.459 520.415 814.273C520.805 814.088 521.19 813.752 521.571 813.264L521.805 813.381C521.61 813.703 521.351 814.015 521.029 814.317C520.708 814.619 520.337 814.868 519.918 815.063C519.508 815.248 519.055 815.341 518.558 815.341C518.148 815.341 517.777 815.263 517.446 815.107C517.114 814.951 516.856 814.722 516.671 814.42C516.485 814.107 516.393 813.727 516.393 813.279C516.393 812.801 516.476 812.294 516.641 811.757C516.807 811.211 517.041 810.68 517.344 810.163C517.656 809.646 518.021 809.178 518.441 808.759C518.87 808.34 519.343 808.008 519.859 807.764C520.376 807.511 520.932 807.384 521.527 807.384C521.917 807.384 522.243 807.477 522.507 807.662C522.77 807.838 522.902 808.111 522.902 808.481C522.902 808.861 522.794 809.217 522.58 809.549C522.365 809.88 522.073 810.183 521.702 810.456C521.342 810.729 520.942 810.973 520.503 811.187C520.074 811.402 519.64 811.587 519.201 811.743C518.762 811.899 518.353 812.026 517.973 812.123L517.987 811.918ZM525.096 815.136H523.297L525.067 808.832C525.106 808.696 525.135 808.569 525.155 808.452C525.174 808.335 525.165 808.237 525.126 808.159C525.096 808.081 525.014 808.042 524.877 808.042C524.692 808.042 524.521 808.135 524.365 808.32C524.219 808.496 524.058 808.822 523.882 809.3L523.634 809.988H523.356L523.736 808.891C523.941 808.315 524.204 807.92 524.526 807.706C524.848 807.491 525.204 807.384 525.594 807.384C525.916 807.384 526.159 807.448 526.325 807.574C526.501 807.701 526.613 807.867 526.662 808.072C526.71 808.267 526.72 808.486 526.691 808.73C526.662 808.964 526.618 809.198 526.559 809.432L525.096 815.136ZM525.638 812.474C525.998 811.47 526.345 810.641 526.676 809.988C527.008 809.334 527.329 808.818 527.641 808.437C527.954 808.047 528.275 807.774 528.607 807.618C528.938 807.462 529.285 807.384 529.645 807.384C530.123 807.384 530.455 807.491 530.64 807.706C530.835 807.911 530.928 808.184 530.918 808.525C530.918 808.857 530.854 809.212 530.728 809.593L529.294 813.893C529.207 814.156 529.182 814.356 529.221 814.493C529.26 814.619 529.358 814.683 529.514 814.683C529.66 814.683 529.811 814.6 529.967 814.434C530.133 814.268 530.308 813.932 530.494 813.425L530.728 812.767H531.006L530.64 813.834C530.503 814.244 530.328 814.556 530.113 814.771C529.909 814.985 529.684 815.131 529.441 815.209C529.207 815.297 528.973 815.341 528.738 815.341C528.485 815.341 528.266 815.297 528.08 815.209C527.905 815.131 527.768 815.019 527.671 814.873C527.544 814.688 527.49 814.449 527.51 814.156C527.529 813.864 527.607 813.513 527.744 813.103L529.075 809.081C529.124 808.925 529.163 808.769 529.192 808.613C529.221 808.447 529.216 808.31 529.177 808.203C529.138 808.086 529.036 808.028 528.87 808.028C528.665 808.028 528.441 808.145 528.197 808.379C527.954 808.603 527.7 808.92 527.437 809.329C527.173 809.739 526.91 810.217 526.647 810.763C526.384 811.309 526.13 811.904 525.886 812.547C525.652 813.181 525.443 813.839 525.257 814.522L525.638 812.474Z" fill="white"/>
<rect x="423.142" y="696.774" width="6.71099" height="256.054" fill="#4F1D08"/>
</g>
<rect x="255.854" y="699.865" width="341.287" height="249.871" rx="2.43776" stroke="#C04915" stroke-width="4.87553"/>
<rect opacity="0.4" x="193.583" y="675.151" width="465.112" height="54.3027" fill="#4F1D08"/>
<rect opacity="0.4" x="193.583" y="533.761" width="465.112" height="19.9058" fill="#4F1D08"/>
<path d="M193.717 682.513H242.576L209.93 619.345H193.717V682.513Z" fill="#29600E"/>
</g>
<path d="M226.789 677.276L193.69 618.013H662.722L703.521 677.679C705.742 680.927 703.399 685.332 699.465 685.306L235.239 682.272C231.728 682.249 228.501 680.341 226.789 677.276Z" fill="#16A010" stroke="url(#paint0_linear_739_1290)" stroke-width="2.43776"/>
<rect x="20.0947" y="604.884" width="121.963" height="14.5352" rx="4.87553" fill="#4F1D08"/>
<rect x="137.857" y="604.884" width="561.745" height="14.5352" rx="4.87553" fill="#E4571A"/>
<rect x="20.0947" y="604.884" width="128.686" height="14.5352" rx="4.87553" fill="#823311"/>
<rect x="137.857" y="604.884" width="561.745" height="14.5352" rx="4.87553" fill="#E4571A"/>
<rect x="20.0947" y="522" width="131.212" height="14.5352" rx="4.87553" fill="#823311"/>
<rect x="137.857" y="522" width="561.745" height="14.5352" rx="4.87553" fill="#E4571A"/>
<g clip-path="url(#clip4_739_1290)">
<path d="M20 980.208H699.527V1021.65C699.527 1027.04 695.161 1031.4 689.776 1031.4H29.751C24.3657 1031.4 20 1027.04 20 1021.65V980.208Z" fill="#FF6D2E"/>
<path d="M20 985.084C20 982.391 22.1828 980.208 24.8755 980.208H694.632C697.325 980.208 699.508 982.391 699.508 985.084V1026.62C699.508 1029.31 697.325 1031.5 694.632 1031.5H24.8756C22.1829 1031.5 20 1029.31 20 1026.62V985.084Z" fill="#FF6D2E"/>
<rect width="154.798" height="51.8025" transform="translate(20 980.208)" fill="#4F1D08"/>
<g clip-path="url(#clip5_739_1290)">
<path d="M137.013 980.208H689.776C695.161 980.208 699.527 984.574 699.527 989.959V1022.26C699.527 1027.65 695.161 1032.01 689.776 1032.01H146.764C141.378 1032.01 137.013 1027.65 137.013 1022.26V980.208Z" fill="#FF6D2E"/>
<g clip-path="url(#clip6_739_1290)">
<path d="M135.795 980.208H689.777C695.162 980.208 699.528 984.574 699.528 989.96V1022.26C699.528 1027.65 695.162 1032.01 689.777 1032.01H145.546C140.161 1032.01 135.795 1027.65 135.795 1022.26V980.208Z" fill="#FF6D2E"/>
<path d="M136.359 980.209L699.529 980.209" stroke="#FF9356" stroke-width="4.87553" stroke-linecap="round"/>
</g>
</g>
</g>
<path opacity="0.4" d="M193.583 619.083H663.504L675.827 636.931L193.583 638.988V619.083Z" fill="#4F1D08"/>
</g>
<defs>
<linearGradient id="paint0_linear_739_1290" x1="222.96" y1="651.69" x2="233.489" y2="651.69" gradientUnits="userSpaceOnUse">
<stop stop-color="#4F1D08"/>
<stop offset="1" stop-color="#4F1D08" stop-opacity="0"/>
</linearGradient>
<clipPath id="clip0_739_1290">
<rect width="850" height="990" fill="white"/>
</clipPath>
<clipPath id="clip1_739_1290">
<rect width="465.613" height="454.034" fill="white" transform="translate(193.691 526.175)"/>
</clipPath>
<clipPath id="clip2_739_1290">
<rect x="248.541" y="702.303" width="346.162" height="254.746" rx="4.87553" fill="white"/>
</clipPath>
<clipPath id="clip3_739_1290">
<rect x="253.416" y="697.428" width="346.162" height="254.746" rx="4.87553" fill="white"/>
</clipPath>
<clipPath id="clip4_739_1290">
<path d="M20 980.208H699.527V1021.65C699.527 1027.04 695.161 1031.4 689.776 1031.4H29.751C24.3657 1031.4 20 1027.04 20 1021.65V980.208Z" fill="white"/>
</clipPath>
<clipPath id="clip5_739_1290">
<path d="M137.013 980.208H689.776C695.161 980.208 699.527 984.574 699.527 989.959V1022.26C699.527 1027.65 695.161 1032.01 689.776 1032.01H146.764C141.378 1032.01 137.013 1027.65 137.013 1022.26V980.208Z" fill="white"/>
</clipPath>
<clipPath id="clip6_739_1290">
<path d="M135.795 980.208H689.777C695.162 980.208 699.528 984.574 699.528 989.96V1022.26C699.528 1027.65 695.162 1032.01 689.777 1032.01H145.546C140.161 1032.01 135.795 1027.65 135.795 1022.26V980.208Z" fill="white"/>
</clipPath>
</defs>
</svg>
