<svg width="303" height="200" viewBox="0 0 303 200" fill="none" xmlns="http://www.w3.org/2000/svg">
<rect x="65.3022" y="55.7575" width="166.795" height="126.209" stroke="#4F1D08" stroke-width="1.36998"/>
<rect width="150.355" height="127.579" transform="translate(64.6172 55.0725)" fill="#4F1D08"/>
<g clip-path="url(#clip0_435_12033)">
<rect width="130.833" height="127.579" transform="translate(101.925 55.0725)" fill="#FF6D2E"/>
<g clip-path="url(#clip1_435_12033)">
<rect x="117.337" y="104.563" width="97.2684" height="71.5813" rx="1.36998" fill="#4F1D08"/>
<line x1="166.998" y1="104.563" x2="166.998" y2="177.494" stroke="#4F1D08" stroke-width="2.05497"/>
</g>
<g clip-path="url(#clip2_435_12033)">
<rect x="118.707" y="103.193" width="97.2684" height="71.5813" rx="1.36998" fill="#FFF5F0"/>
<circle cx="172.821" cy="138.984" r="1.36998" fill="#4F1D08"/>
<circle cx="161.861" cy="138.984" r="1.36998" fill="#4F1D08"/>
<g opacity="0.8">
<rect x="181.871" y="128.69" width="19.8647" height="11.6448" rx="1.36998" fill="#39643B"/>
<path d="M186.234 129.264L192.209 120.066L198.27 129.264" stroke="black" stroke-width="0.342494"/>
<rect x="182.385" y="128.69" width="19.8647" height="11.6448" rx="1.36998" fill="#6CB46F"/>
<rect x="182.385" y="128.69" width="19.6098" height="11.6448" rx="1.36998" fill="#4C884E"/>
</g>
<path d="M189.058 132.879C188.94 132.879 188.824 132.917 188.709 132.994C188.597 133.068 188.491 133.172 188.392 133.306C188.297 133.438 188.212 133.59 188.138 133.762C188.064 133.932 188.005 134.114 187.961 134.309C187.92 134.503 187.899 134.699 187.899 134.897C187.899 135.165 187.945 135.376 188.035 135.53C188.125 135.68 188.242 135.756 188.384 135.756C188.502 135.756 188.617 135.719 188.73 135.645C188.845 135.568 188.95 135.464 189.046 135.332C189.145 135.198 189.231 135.046 189.305 134.876C189.379 134.704 189.436 134.52 189.478 134.325C189.521 134.131 189.543 133.935 189.543 133.738C189.543 133.469 189.498 133.26 189.408 133.109C189.317 132.955 189.201 132.879 189.058 132.879ZM187.283 134.843C187.283 134.662 187.31 134.476 187.365 134.284C187.42 134.093 187.499 133.909 187.603 133.734C187.707 133.558 187.834 133.401 187.981 133.261C188.132 133.121 188.301 133.01 188.487 132.928C188.673 132.846 188.876 132.805 189.095 132.805C189.43 132.805 189.691 132.891 189.88 133.064C190.069 133.234 190.164 133.477 190.164 133.795C190.164 133.976 190.135 134.162 190.078 134.354C190.023 134.543 189.943 134.725 189.839 134.901C189.735 135.076 189.608 135.234 189.457 135.373C189.309 135.513 189.14 135.624 188.951 135.706C188.765 135.789 188.564 135.83 188.347 135.83C188.013 135.83 187.751 135.745 187.562 135.575C187.376 135.402 187.283 135.158 187.283 134.843ZM191.766 133.783C191.705 133.783 191.638 133.823 191.564 133.902C191.493 133.982 191.42 134.091 191.346 134.231C191.272 134.368 191.203 134.523 191.137 134.695C191.074 134.868 191.019 135.049 190.972 135.238L191.051 134.81C191.146 134.52 191.242 134.286 191.338 134.108C191.434 133.929 191.533 133.799 191.634 133.717C191.736 133.635 191.844 133.594 191.959 133.594C192.112 133.594 192.23 133.646 192.312 133.75C192.397 133.854 192.44 134.008 192.44 134.21C192.44 134.336 192.422 134.472 192.386 134.617C192.351 134.762 192.299 134.906 192.23 135.049C192.164 135.191 192.082 135.323 191.984 135.443C191.885 135.561 191.771 135.656 191.642 135.727C191.516 135.795 191.375 135.83 191.219 135.83C191.131 135.83 191.053 135.81 190.985 135.772C190.916 135.734 190.866 135.68 190.833 135.612L190.866 135.542C190.898 135.605 190.934 135.65 190.972 135.678C191.011 135.705 191.056 135.719 191.108 135.719C191.193 135.719 191.275 135.686 191.355 135.62C191.437 135.552 191.511 135.461 191.577 135.349C191.645 135.234 191.705 135.106 191.757 134.967C191.81 134.827 191.849 134.684 191.877 134.539C191.907 134.394 191.922 134.258 191.922 134.132C191.922 134.001 191.908 133.91 191.881 133.861C191.853 133.809 191.815 133.783 191.766 133.783ZM191.096 133.055C191.192 133.047 191.283 133.036 191.371 133.023C191.462 133.006 191.546 132.984 191.626 132.957L190.734 136.101C190.696 136.232 190.707 136.32 190.767 136.364C190.827 136.408 190.925 136.43 191.059 136.43L191.034 136.516C190.971 136.513 190.883 136.509 190.771 136.504C190.659 136.501 190.541 136.5 190.418 136.5C190.316 136.5 190.213 136.501 190.109 136.504C190.005 136.509 189.929 136.513 189.879 136.516L189.904 136.43C190.003 136.43 190.074 136.411 190.118 136.372C190.161 136.337 190.197 136.271 190.224 136.175L191.096 133.055ZM190.278 134.321C190.382 134.217 190.478 134.113 190.566 134.009C190.656 133.902 190.744 133.777 190.829 133.635C190.914 133.49 190.998 133.308 191.083 133.088L191.096 133.154C191.038 133.343 190.97 133.51 190.89 133.655C190.811 133.798 190.723 133.927 190.627 134.042C190.534 134.157 190.433 134.268 190.323 134.375L190.278 134.321ZM193.049 134.868C193.178 134.819 193.296 134.768 193.402 134.716C193.512 134.661 193.604 134.604 193.678 134.543C193.779 134.453 193.861 134.347 193.924 134.227C193.987 134.103 194.019 133.969 194.019 133.824C194.019 133.761 194.013 133.72 194.002 133.701C193.992 133.682 193.975 133.672 193.953 133.672C193.89 133.672 193.822 133.702 193.748 133.762C193.674 133.823 193.601 133.906 193.53 134.013C193.459 134.117 193.393 134.235 193.333 134.366C193.275 134.498 193.228 134.636 193.193 134.782C193.157 134.927 193.139 135.071 193.139 135.213C193.139 135.358 193.167 135.461 193.222 135.521C193.279 135.579 193.354 135.608 193.448 135.608C193.527 135.608 193.622 135.582 193.731 135.53C193.841 135.478 193.949 135.383 194.056 135.246L194.122 135.279C194.067 135.369 193.994 135.457 193.904 135.542C193.813 135.627 193.709 135.697 193.591 135.752C193.476 135.804 193.349 135.83 193.209 135.83C193.094 135.83 192.99 135.808 192.897 135.764C192.804 135.72 192.731 135.656 192.679 135.571C192.627 135.483 192.601 135.376 192.601 135.25C192.601 135.116 192.624 134.973 192.671 134.823C192.717 134.669 192.783 134.52 192.868 134.375C192.956 134.23 193.059 134.098 193.176 133.98C193.297 133.862 193.43 133.769 193.575 133.701C193.72 133.629 193.876 133.594 194.044 133.594C194.153 133.594 194.245 133.62 194.319 133.672C194.393 133.721 194.43 133.798 194.43 133.902C194.43 134.009 194.4 134.109 194.339 134.202C194.279 134.295 194.197 134.38 194.093 134.457C193.992 134.534 193.879 134.602 193.756 134.662C193.635 134.723 193.513 134.775 193.39 134.819C193.267 134.862 193.152 134.898 193.045 134.925L193.049 134.868ZM195.047 135.772H194.541L195.038 134.001C195.049 133.962 195.058 133.927 195.063 133.894C195.069 133.861 195.066 133.834 195.055 133.812C195.047 133.79 195.023 133.779 194.985 133.779C194.933 133.779 194.885 133.805 194.841 133.857C194.8 133.906 194.755 133.998 194.706 134.132L194.636 134.325H194.558L194.664 134.017C194.722 133.855 194.796 133.745 194.886 133.684C194.977 133.624 195.077 133.594 195.186 133.594C195.277 133.594 195.345 133.612 195.392 133.647C195.441 133.683 195.473 133.729 195.486 133.787C195.5 133.842 195.503 133.903 195.495 133.972C195.486 134.038 195.474 134.103 195.458 134.169L195.047 135.772ZM195.199 135.024C195.3 134.742 195.397 134.509 195.491 134.325C195.584 134.142 195.674 133.997 195.762 133.89C195.849 133.78 195.94 133.703 196.033 133.66C196.126 133.616 196.223 133.594 196.325 133.594C196.459 133.594 196.552 133.624 196.604 133.684C196.659 133.742 196.685 133.819 196.682 133.914C196.682 134.008 196.665 134.108 196.629 134.214L196.226 135.423C196.202 135.497 196.195 135.553 196.206 135.591C196.217 135.627 196.244 135.645 196.288 135.645C196.329 135.645 196.371 135.621 196.415 135.575C196.462 135.528 196.511 135.434 196.563 135.291L196.629 135.106H196.707L196.604 135.406C196.566 135.521 196.517 135.609 196.456 135.669C196.399 135.73 196.336 135.771 196.267 135.793C196.202 135.817 196.136 135.83 196.07 135.83C195.999 135.83 195.937 135.817 195.885 135.793C195.836 135.771 195.797 135.739 195.77 135.698C195.734 135.646 195.719 135.579 195.725 135.497C195.73 135.415 195.752 135.316 195.791 135.201L196.165 134.071C196.178 134.027 196.189 133.983 196.197 133.939C196.206 133.892 196.204 133.854 196.193 133.824C196.182 133.791 196.154 133.775 196.107 133.775C196.049 133.775 195.986 133.808 195.918 133.873C195.849 133.936 195.778 134.025 195.704 134.14C195.63 134.256 195.556 134.39 195.482 134.543C195.408 134.697 195.337 134.864 195.269 135.045C195.203 135.223 195.144 135.408 195.092 135.599L195.199 135.024Z" fill="white"/>
<rect x="166.398" y="103.009" width="1.88573" height="71.9487" fill="#4F1D08"/>
</g>
<rect x="119.392" y="103.878" width="95.8984" height="70.2113" rx="0.684989" stroke="#C04915" stroke-width="1.36998"/>
<rect opacity="0.4" x="101.895" y="96.9333" width="130.692" height="15.2586" fill="#4F1D08"/>
<rect opacity="0.4" x="101.895" y="57.2041" width="130.692" height="5.59333" fill="#4F1D08"/>
<path d="M101.932 99.0021H115.661L106.488 81.2524H101.932V99.0021Z" fill="#29600E"/>
</g>
<path d="M111.225 97.5305L101.925 80.8781H233.718L245.182 97.6437C245.806 98.5563 245.148 99.7942 244.043 99.787L113.6 98.9343C112.613 98.9279 111.706 98.3917 111.225 97.5305Z" fill="#16A010" stroke="url(#paint0_linear_435_12033)" stroke-width="0.684989"/>
<rect x="53.1455" y="77.189" width="34.2705" height="4.08426" rx="1.36998" fill="#4F1D08"/>
<rect x="86.2363" y="77.189" width="157.845" height="4.08426" rx="1.36998" fill="#E4571A"/>
<rect x="53.1455" y="77.189" width="36.1596" height="4.08426" rx="1.36998" fill="#823311"/>
<rect x="86.2363" y="77.189" width="157.845" height="4.08426" rx="1.36998" fill="#E4571A"/>
<rect x="53.1455" y="53.8994" width="36.8693" height="4.08426" rx="1.36998" fill="#823311"/>
<rect x="86.2363" y="53.8994" width="157.845" height="4.08426" rx="1.36998" fill="#E4571A"/>
<g clip-path="url(#clip3_435_12033)">
<path d="M53.1191 182.652H244.06V194.296C244.06 195.81 242.833 197.036 241.32 197.036H55.8591C54.3459 197.036 53.1191 195.81 53.1191 194.296V182.652Z" fill="#FF6D2E"/>
<path d="M53.1191 184.022C53.1191 183.265 53.7325 182.652 54.4891 182.652H242.684C243.441 182.652 244.054 183.265 244.054 184.022V195.693C244.054 196.45 243.441 197.063 242.684 197.063H54.4891C53.7325 197.063 53.1191 196.45 53.1191 195.693V184.022Z" fill="#FF6D2E"/>
<rect width="43.4968" height="14.556" transform="translate(53.1191 182.652)" fill="#4F1D08"/>
<g clip-path="url(#clip4_435_12033)">
<path d="M85.998 182.652H241.319C242.832 182.652 244.059 183.878 244.059 185.392V194.468C244.059 195.981 242.832 197.208 241.319 197.208H88.738C87.2248 197.208 85.998 195.981 85.998 194.468V182.652Z" fill="#FF6D2E"/>
<g clip-path="url(#clip5_435_12033)">
<path d="M85.6562 182.652H241.32C242.833 182.652 244.06 183.878 244.06 185.392V194.468C244.06 195.981 242.833 197.208 241.32 197.208H88.3962C86.883 197.208 85.6562 195.981 85.6562 194.468V182.652Z" fill="#FF6D2E"/>
<path d="M85.8145 182.652L244.06 182.652" stroke="#FF9356" stroke-width="1.36998" stroke-linecap="round"/>
</g>
</g>
</g>
<path opacity="0.4" d="M101.895 81.1787H233.938L237.401 86.1941L101.895 86.772V81.1787Z" fill="#4F1D08"/>
<path d="M240.96 43.5395L236.695 31.7288C246.406 22.2803 258.458 24.511 263.27 26.8075L267.535 37.962C255.986 31.4005 245.007 38.9464 240.96 43.5395Z" fill="#F9C22A"/>
<path d="M240.96 200L236.695 188.189C246.406 178.741 258.458 180.971 263.27 183.268L267.535 194.422C255.986 187.861 245.007 195.407 240.96 200Z" fill="#F9C22A"/>
<path d="M13.6538 177.036L9.38867 165.225C19.0996 155.777 31.1511 158.008 35.9629 160.304L40.2279 171.459C28.6796 164.897 17.7001 172.443 13.6538 177.036Z" fill="#F9C22A"/>
<path d="M52.4585 44.049L56.7236 32.2383C47.0127 22.7898 34.9613 25.0205 30.1494 27.317L25.8844 38.4716C37.4327 31.9101 48.4122 39.4559 52.4585 44.049Z" fill="#16A010"/>
<path d="M202.143 17.4715L197.878 5.66084C207.589 -3.78772 214.361 0.931577 219.173 3.22803L228.717 11.8941C217.169 5.33256 206.189 12.8784 202.143 17.4715Z" fill="#16A010"/>
<path d="M86.0122 19.6415L90.2773 7.83076C80.5664 -1.6178 73.7943 3.1015 68.9825 5.39795L59.4381 14.064C70.9864 7.50248 81.966 15.0483 86.0122 19.6415Z" fill="#16A010"/>
<path d="M28.0879 134.268C31.7379 117.387 46.8398 86.2251 78.0473 96.6274C117.057 109.63 109.841 50.473 125.269 47.3522C139.146 44.5452 153.785 39.1397 160.172 35.0334" stroke="#16A010" stroke-width="4.12418" stroke-linecap="square"/>
<path d="M265.577 84.9443C267.483 82.276 272.781 78.5403 278.728 84.9443C286.161 92.9494 286.447 82.0855 293.594 82.3714C299.312 82.6001 300.741 86.088 300.741 87.8033" stroke="#FF6D2E" stroke-width="4.12418" stroke-linecap="round"/>
<path d="M2.25781 115.452C4.1635 112.783 9.46156 109.048 15.4083 115.452C22.8417 123.457 23.1276 112.593 30.2749 112.879C35.9927 113.108 37.4221 116.595 37.4221 118.311" stroke="#16A010" stroke-width="4.12418" stroke-linecap="round"/>
<path d="M57.2754 50.953C59.1811 48.2846 64.4791 44.549 70.4259 50.953C77.8593 58.958 78.1452 48.0942 85.2924 48.3801C91.0103 48.6088 92.4397 52.0966 92.4397 53.812" stroke="#FF6D2E" stroke-width="4.12418" stroke-linecap="round"/>
<path d="M248.716 133.493C251.89 132.667 258.351 133.197 258.809 141.924C259.382 152.833 266.566 144.679 271.868 149.481C276.109 153.322 274.97 156.915 273.871 158.231" stroke="#FF6D2E" stroke-width="4.12418" stroke-linecap="round"/>
<defs>
<linearGradient id="paint0_linear_435_12033" x1="110.149" y1="90.3411" x2="113.108" y2="90.3411" gradientUnits="userSpaceOnUse">
<stop stop-color="#4F1D08"/>
<stop offset="1" stop-color="#4F1D08" stop-opacity="0"/>
</linearGradient>
<clipPath id="clip0_435_12033">
<rect width="130.833" height="127.579" fill="white" transform="translate(101.925 55.0725)"/>
</clipPath>
<clipPath id="clip1_435_12033">
<rect x="117.337" y="104.563" width="97.2684" height="71.5813" rx="1.36998" fill="white"/>
</clipPath>
<clipPath id="clip2_435_12033">
<rect x="118.707" y="103.193" width="97.2684" height="71.5813" rx="1.36998" fill="white"/>
</clipPath>
<clipPath id="clip3_435_12033">
<path d="M53.1191 182.652H244.06V194.296C244.06 195.81 242.833 197.036 241.32 197.036H55.8591C54.3459 197.036 53.1191 195.81 53.1191 194.296V182.652Z" fill="white"/>
</clipPath>
<clipPath id="clip4_435_12033">
<path d="M85.998 182.652H241.319C242.832 182.652 244.059 183.878 244.059 185.392V194.468C244.059 195.981 242.832 197.208 241.319 197.208H88.738C87.2248 197.208 85.998 195.981 85.998 194.468V182.652Z" fill="white"/>
</clipPath>
<clipPath id="clip5_435_12033">
<path d="M85.6562 182.652H241.32C242.833 182.652 244.06 183.878 244.06 185.392V194.468C244.06 195.981 242.833 197.208 241.32 197.208H88.3962C86.883 197.208 85.6562 195.981 85.6562 194.468V182.652Z" fill="white"/>
</clipPath>
</defs>
</svg>
