<svg width="121" height="40" viewBox="0 0 121 40" fill="none" xmlns="http://www.w3.org/2000/svg">
<rect x="0.5" y="0.5" width="39" height="39" rx="9.5" fill="#E0633A"/>
<rect x="0.5" y="0.5" width="39" height="39" rx="9.5" stroke="#E0633A"/>
<path d="M29.2256 15.685H8.75L13.9353 11.25H29.2256V15.685Z" fill="white"/>
<path d="M24.1061 22.0985H13.8672L19.0525 17.6636H24.1061V22.0985Z" fill="white"/>
<path d="M24.1061 28.5121H13.8672L19.0525 24.0771H24.1061V28.5121Z" fill="white"/>
<path d="M51.952 19V10.072H48.544V7.8H57.824V10.072H54.416V19H51.952ZM60.5141 19.16C58.6581 19.16 57.6021 17.96 57.6021 15.976V10.424H60.0341V15.208C60.0341 16.36 60.5621 16.952 61.5061 16.952C62.4501 16.952 63.0261 16.36 63.0261 15.208V10.424H65.4581V19H63.0261V17.784C62.4661 18.504 61.7301 19.16 60.5141 19.16ZM66.6349 19V7.32H69.0669V13.544L71.9149 10.424H74.8269L71.5629 13.8L74.9389 19H72.1229L69.9309 15.48L69.0669 16.392V19H66.6349ZM78.1116 19.16C76.8956 19.16 75.5836 18.76 74.4316 17.864L75.4716 16.264C76.4156 16.952 77.3596 17.288 78.1756 17.288C78.8796 17.288 79.1996 17.032 79.1996 16.648V16.616C79.1996 16.088 78.3676 15.928 77.4236 15.624C76.2236 15.288 74.8636 14.712 74.8636 13.048V13.016C74.8636 11.272 76.2716 10.296 77.9996 10.296C79.0876 10.296 80.2556 10.664 81.1996 11.288L80.2716 12.968C79.4236 12.472 78.5756 12.168 77.9516 12.168C77.3596 12.168 77.0556 12.424 77.0556 12.76V12.792C77.0556 13.24 77.8716 13.528 78.7996 13.816C79.9996 14.2 81.3916 14.792 81.3916 16.36V16.392C81.3916 18.296 79.9676 19.16 78.1116 19.16ZM82.1349 19V7.32H84.5669V11.64C85.1269 10.92 85.8629 10.264 87.0789 10.264C88.9349 10.264 89.9909 11.464 89.9909 13.448V19H87.5589V14.216C87.5589 13.064 87.0309 12.472 86.0869 12.472C85.1429 12.472 84.5669 13.064 84.5669 14.216V19H82.1349ZM95.3116 19.192C92.6716 19.192 90.6876 17.24 90.6876 14.76V14.728C90.6876 12.264 92.6716 10.264 95.3436 10.264C97.9836 10.264 99.9676 12.216 99.9676 14.696V14.728C99.9676 17.192 97.9836 19.192 95.3116 19.192ZM95.3436 17.096C96.7356 17.096 97.5676 16.04 97.5676 14.76V14.728C97.5676 13.464 96.6556 12.36 95.3116 12.36C93.9196 12.36 93.0876 13.416 93.0876 14.696V14.728C93.0876 15.992 93.9996 17.096 95.3436 17.096ZM100.729 21.56V10.424H103.161V11.656C103.753 10.84 104.553 10.264 105.833 10.264C107.833 10.264 109.737 11.832 109.737 14.696V14.728C109.737 17.592 107.865 19.16 105.833 19.16C104.537 19.16 103.737 18.568 103.161 17.88V21.56H100.729ZM105.209 17.096C106.345 17.096 107.305 16.168 107.305 14.728V14.696C107.305 13.272 106.345 12.328 105.209 12.328C104.073 12.328 103.129 13.272 103.129 14.696V14.728C103.129 16.152 104.073 17.096 105.209 17.096ZM110.526 21.56V10.424H112.958V11.656C113.549 10.84 114.35 10.264 115.63 10.264C117.63 10.264 119.534 11.832 119.534 14.696V14.728C119.534 17.592 117.661 19.16 115.63 19.16C114.334 19.16 113.534 18.568 112.958 17.88V21.56H110.526ZM115.006 17.096C116.142 17.096 117.102 16.168 117.102 14.728V14.696C117.102 13.272 116.142 12.328 115.006 12.328C113.87 12.328 112.926 13.272 112.926 14.696V14.728C112.926 16.152 113.87 17.096 115.006 17.096Z" fill="#111113"/>
<path d="M51.1201 33.9209L53.2148 27.8906H54.2354L51.6035 35H50.876L51.1201 33.9209ZM49.1621 27.8906L51.2373 33.9209L51.4961 35H50.7686L48.1416 27.8906H49.1621ZM59.709 34.2334V35H55.9443V34.2334H59.709ZM56.1348 27.8906V35H55.1924V27.8906H56.1348ZM59.2109 30.9473V31.7139H55.9443V30.9473H59.2109ZM59.6602 27.8906V28.6621H55.9443V27.8906H59.6602ZM66.3447 27.8906V35H65.3975L61.8184 29.5166V35H60.876V27.8906H61.8184L65.4121 33.3887V27.8906H66.3447ZM69.9385 35H68.4541L68.4639 34.2334H69.9385C70.4463 34.2334 70.8695 34.1276 71.208 33.916C71.5465 33.7012 71.8005 33.4017 71.9697 33.0176C72.1423 32.6302 72.2285 32.1777 72.2285 31.6602V31.2256C72.2285 30.8187 72.1797 30.4574 72.082 30.1416C71.9844 29.8226 71.8411 29.554 71.6523 29.3359C71.4635 29.1146 71.2324 28.9469 70.959 28.833C70.6888 28.7191 70.3779 28.6621 70.0264 28.6621H68.4248V27.8906H70.0264C70.4919 27.8906 70.9167 27.9688 71.3008 28.125C71.6849 28.278 72.0153 28.501 72.292 28.7939C72.5719 29.0837 72.7868 29.4352 72.9365 29.8486C73.0863 30.2588 73.1611 30.721 73.1611 31.2354V31.6602C73.1611 32.1745 73.0863 32.6383 72.9365 33.0518C72.7868 33.4619 72.5703 33.8118 72.2871 34.1016C72.0072 34.3913 71.6686 34.6143 71.2715 34.7705C70.8776 34.9235 70.4333 35 69.9385 35ZM68.957 27.8906V35H68.0146V27.8906H68.957ZM80.0508 31.2207V31.6699C80.0508 32.2038 79.984 32.6823 79.8506 33.1055C79.7171 33.5286 79.5251 33.8883 79.2744 34.1846C79.0238 34.4808 78.7227 34.707 78.3711 34.8633C78.0228 35.0195 77.6322 35.0977 77.1992 35.0977C76.7793 35.0977 76.3936 35.0195 76.042 34.8633C75.6937 34.707 75.391 34.4808 75.1338 34.1846C74.8799 33.8883 74.6829 33.5286 74.543 33.1055C74.403 32.6823 74.333 32.2038 74.333 31.6699V31.2207C74.333 30.6868 74.4014 30.21 74.5381 29.79C74.6781 29.3669 74.875 29.0072 75.1289 28.7109C75.3828 28.4115 75.6839 28.1836 76.0322 28.0273C76.3838 27.8711 76.7695 27.793 77.1895 27.793C77.6224 27.793 78.013 27.8711 78.3613 28.0273C78.7129 28.1836 79.014 28.4115 79.2646 28.7109C79.5186 29.0072 79.7122 29.3669 79.8457 29.79C79.9824 30.21 80.0508 30.6868 80.0508 31.2207ZM79.1182 31.6699V31.2109C79.1182 30.7878 79.0742 30.4134 78.9863 30.0879C78.9017 29.7624 78.7764 29.4889 78.6104 29.2676C78.4443 29.0462 78.2409 28.8786 78 28.7646C77.7624 28.6507 77.4922 28.5938 77.1895 28.5938C76.8965 28.5938 76.6312 28.6507 76.3936 28.7646C76.1592 28.8786 75.9574 29.0462 75.7881 29.2676C75.6221 29.4889 75.4935 29.7624 75.4023 30.0879C75.3112 30.4134 75.2656 30.7878 75.2656 31.2109V31.6699C75.2656 32.0964 75.3112 32.474 75.4023 32.8027C75.4935 33.1283 75.6237 33.4033 75.793 33.6279C75.9655 33.8493 76.1689 34.0169 76.4033 34.1309C76.641 34.2448 76.9062 34.3018 77.1992 34.3018C77.5052 34.3018 77.777 34.2448 78.0146 34.1309C78.2523 34.0169 78.4525 33.8493 78.6152 33.6279C78.7812 33.4033 78.9066 33.1283 78.9912 32.8027C79.0758 32.474 79.1182 32.0964 79.1182 31.6699ZM81.4619 27.8906H83.8154C84.3493 27.8906 84.8001 27.972 85.168 28.1348C85.5391 28.2975 85.8206 28.5384 86.0127 28.8574C86.208 29.1732 86.3057 29.5622 86.3057 30.0244C86.3057 30.3499 86.2389 30.6478 86.1055 30.918C85.9753 31.1849 85.7865 31.4128 85.5391 31.6016C85.2949 31.7871 85.002 31.9255 84.6602 32.0166L84.3965 32.1191H82.1846L82.1748 31.3525H83.8447C84.1833 31.3525 84.4648 31.2939 84.6895 31.1768C84.9141 31.0563 85.0833 30.8952 85.1973 30.6934C85.3112 30.4915 85.3682 30.2686 85.3682 30.0244C85.3682 29.751 85.3145 29.5117 85.207 29.3066C85.0996 29.1016 84.9303 28.9437 84.6992 28.833C84.4714 28.7191 84.1768 28.6621 83.8154 28.6621H82.4043V35H81.4619V27.8906ZM85.6172 35L83.8887 31.7773L84.8701 31.7725L86.623 34.9414V35H85.6172Z" fill="#7E7E80"/>
</svg>
