<svg width="96" height="24" viewBox="0 0 96 24" fill="none" xmlns="http://www.w3.org/2000/svg">
<path d="M19.2309 16.8215C18.7266 17.3453 18.1196 17.7593 17.4479 18.0377C16.7762 18.3161 16.0543 18.4529 15.3274 18.4394C14.0097 18.4419 12.7343 17.9748 11.7301 17.1218C10.7258 16.2688 10.0583 15.0858 9.84752 13.7852L9.82812 13.6688V7.36061H11.266C12.1996 7.4271 12.665 7.87867 12.665 8.72087V13.4222C12.662 13.4756 12.6686 13.5291 12.6844 13.5802C12.7999 14.0526 13.0536 14.4799 13.413 14.8075C13.6592 15.0648 13.9564 15.2679 14.2855 15.4039C14.6147 15.5398 14.9686 15.6056 15.3246 15.597C15.6803 15.6029 16.0334 15.5359 16.3621 15.4001C16.6909 15.2643 16.9884 15.0626 17.2362 14.8075C17.4877 14.5569 17.6869 14.2589 17.8224 13.9308C17.958 13.6026 18.0271 13.2509 18.0257 12.8959V8.71256C18.0257 7.85928 18.4875 7.40586 19.4109 7.35229H20.8294V12.9291C20.8428 13.213 20.8233 13.4975 20.7712 13.7769C20.607 14.9337 20.0656 16.0039 19.2309 16.8215Z" fill="#E0633A"/>
<path d="M79.0078 8.98954C80.0424 10.037 80.6226 11.4499 80.6226 12.9221C80.6226 14.3944 80.0424 15.8073 79.0078 16.8547C78.1513 17.7028 77.0436 18.2514 75.8499 18.4186C74.6562 18.5859 73.4404 18.3629 72.3838 17.7828L72.3339 17.7523L72.2869 17.7218V20.4036C72.2869 21.3271 71.8334 21.7888 70.9266 21.7888H69.5414V13.0371C69.5367 12.6945 69.4646 12.3562 69.3291 12.0415C69.1937 11.7268 68.9975 11.4419 68.7518 11.2031C68.6652 11.0915 68.558 10.9974 68.436 10.9261C68.304 10.8277 68.1938 10.703 68.1122 10.56C68.0307 10.417 67.9797 10.2586 67.9622 10.0949C67.9405 9.93143 67.9578 9.7651 68.0127 9.60957C68.0676 9.45403 68.1585 9.31371 68.2781 9.20009C68.6437 8.82576 69.0618 8.5066 69.5192 8.25261C69.9862 8.49312 70.4072 8.81382 70.7631 9.20009C70.7969 9.23799 70.8361 9.27067 70.8795 9.29705C70.9199 9.24556 70.9634 9.19653 71.0097 9.15022C71.054 9.10312 71.1039 9.04772 71.1565 8.98123C72.2 7.94653 73.6099 7.36597 75.0794 7.36597C76.5489 7.36597 77.9589 7.94653 79.0023 8.98123L79.0078 8.98954ZM76.9965 14.8462C77.2538 14.5942 77.4567 14.292 77.5925 13.9584C77.7283 13.6249 77.7942 13.267 77.7861 12.9069C77.792 12.5512 77.725 12.1981 77.5892 11.8694C77.4534 11.5406 77.2517 11.2431 76.9965 10.9953C76.6211 10.6192 76.1431 10.3621 75.6222 10.2564C75.1014 10.1506 74.561 10.2008 74.0686 10.4008C73.5762 10.6007 73.1537 10.9414 72.854 11.3803C72.5543 11.8192 72.3908 12.3367 72.3838 12.8681V13.026C72.3983 13.7112 72.6819 14.363 73.1734 14.8406C73.6819 15.3448 74.3689 15.6277 75.085 15.6277C75.801 15.6277 76.4881 15.3448 76.9965 14.8406V14.8462Z" fill="#E0633A"/>
<path d="M91.7405 8.98954C92.777 10.0359 93.3585 11.4492 93.3585 12.9221C93.3585 14.395 92.777 15.8083 91.7405 16.8547C90.8839 17.7028 89.7763 18.2514 88.5825 18.4186C87.3888 18.5859 86.173 18.3629 85.1164 17.7828L85.0693 17.7523L85.0195 17.7218V20.4036C85.0195 21.3271 84.566 21.7888 83.6592 21.7888H82.274V13.0371C82.27 12.6944 82.1981 12.3559 82.0626 12.0411C81.9271 11.7264 81.7306 11.4415 81.4844 11.2031C81.3993 11.09 81.2918 10.9957 81.1686 10.9261C81.0366 10.8279 80.9266 10.7033 80.8455 10.5601C80.7644 10.417 80.714 10.2586 80.6976 10.0949C80.6745 9.93137 80.6911 9.76465 80.7461 9.60888C80.8011 9.45311 80.8928 9.31289 81.0135 9.20009C81.3785 8.82514 81.7967 8.5059 82.2546 8.25261C82.7207 8.49315 83.1408 8.81387 83.4957 9.20009C83.5297 9.2389 83.57 9.27168 83.6149 9.29705C83.6535 9.24494 83.6961 9.19585 83.7423 9.15022C83.7945 9.09676 83.8435 9.04034 83.8891 8.98123C84.9326 7.94653 86.3425 7.36597 87.812 7.36597C89.2815 7.36597 90.6915 7.94653 91.7349 8.98123L91.7405 8.98954ZM89.7291 14.8462C89.9864 14.5942 90.1893 14.292 90.3251 13.9584C90.4609 13.6249 90.5268 13.267 90.5187 12.9069C90.5246 12.5512 90.4576 12.1981 90.3218 11.8694C90.186 11.5406 89.9843 11.2431 89.7291 10.9953C89.3537 10.6192 88.8757 10.3621 88.3549 10.2564C87.8341 10.1506 87.2936 10.2008 86.8012 10.4008C86.3088 10.6007 85.8863 10.9414 85.5866 11.3803C85.287 11.8192 85.1234 12.3367 85.1164 12.8681V13.026C85.1309 13.7112 85.4145 14.363 85.906 14.8406C86.4145 15.3448 87.1015 15.6277 87.8176 15.6277C88.5336 15.6277 89.2207 15.3448 89.7291 14.8406V14.8462Z" fill="#E0633A"/>
<path d="M54.9668 12.1312V18.4394H53.529C52.6055 18.3877 52.1438 17.9343 52.1438 17.0792V12.3861C52.1319 12.3551 52.1253 12.3223 52.1244 12.2891C52.1232 12.2614 52.1166 12.2341 52.105 12.2088C52.051 11.984 51.9642 11.7683 51.8473 11.5688C51.7213 11.3571 51.5696 11.1617 51.3957 10.9871C51.1476 10.7315 50.8497 10.5296 50.5204 10.3938C50.1912 10.258 49.8375 10.1912 49.4814 10.1975C49.1281 10.1964 48.7781 10.2649 48.4513 10.3991C48.1245 10.5333 47.8274 10.7305 47.5768 10.9795C47.3262 11.2285 47.1272 11.5245 46.991 11.8504C46.8548 12.1764 46.7841 12.526 46.783 12.8792V17.0792C46.7856 17.274 46.7518 17.4675 46.6833 17.6499C46.5115 18.1375 46.0793 18.3979 45.3812 18.4394H43.9434V4.44336H45.3618C45.5367 4.43989 45.7104 4.4731 45.8717 4.54086C46.033 4.60862 46.1783 4.70942 46.2982 4.83676C46.4229 4.96062 46.5213 5.10838 46.5874 5.2712C46.6536 5.43401 46.6862 5.60851 46.6833 5.78424V8.08921C47.5318 7.59504 48.4996 7.34303 49.4814 7.3606C50.7953 7.36261 52.0657 7.83148 53.0659 8.6835C54.0661 9.53551 54.731 10.7152 54.9419 12.0121L54.9668 12.1312Z" fill="#E0633A"/>
<path d="M24.6247 3V11.8847L28.6086 7.48528H31.3319V7.60441L26.6942 12.5274L31.958 18.0682V18.2206H29.2125L24.6247 13.256V18.2206H22.3613V3H24.6247Z" fill="#E0633A" stroke="#E0633A" stroke-width="0.554081" stroke-miterlimit="10"/>
<path d="M40.726 10.1199C39.9471 9.43279 38.9322 9.07431 37.8946 9.11977C37.3225 9.07865 36.7496 9.18751 36.2324 9.43559C36.0464 9.51932 35.8887 9.65527 35.7786 9.82692C35.6684 9.99856 35.6105 10.1985 35.6118 10.4025C35.6266 11.1726 36.4032 11.6344 37.9417 11.7877C38.4718 11.836 38.999 11.9127 39.5208 12.0176C40.0083 12.1272 40.4828 12.2879 40.9365 12.4969C41.4174 12.7045 41.8206 13.0583 42.089 13.5081C42.3729 14.0149 42.5127 14.5897 42.4935 15.1703C42.4966 15.6518 42.3834 16.1269 42.1634 16.5553C41.9435 16.9836 41.6233 17.3524 41.2302 17.6304C40.4028 18.2547 39.2992 18.5668 37.9196 18.5668C35.8307 18.5668 34.198 17.9066 33.0215 16.586L34.1961 14.9958C35.1196 16.0264 36.3755 16.5565 37.9639 16.586C38.5143 16.5992 39.0598 16.4794 39.5541 16.2369C39.7577 16.1475 39.9314 16.0016 40.0546 15.8165C40.1779 15.6314 40.2455 15.4148 40.2495 15.1925C40.2655 14.9811 40.2169 14.7698 40.11 14.5867C40.0031 14.4036 39.8431 14.2574 39.6511 14.1674C39.0552 13.9044 38.4173 13.7496 37.7672 13.7103C34.8638 13.4351 33.4047 12.3611 33.3899 10.4883C33.3634 9.99155 33.4762 9.49723 33.7156 9.06109C33.9549 8.62496 34.3114 8.26435 34.7447 8.01992C35.6834 7.46559 36.7575 7.18267 37.8475 7.20265C39.5301 7.20265 40.9088 7.68193 41.9837 8.64049L40.726 10.1199Z" fill="#E0633A" stroke="#E0633A" stroke-width="0.554081" stroke-miterlimit="10"/>
<path d="M58.4097 17.7525C57.5466 17.31 56.8313 16.6255 56.3513 15.7827C55.8793 14.8748 55.6328 13.8666 55.6328 12.8433C55.6328 11.82 55.8793 10.8118 56.3513 9.90391C56.8313 9.06113 57.5466 8.3766 58.4097 7.93416C59.3768 7.44328 60.4505 7.19962 61.5347 7.22493C62.6205 7.20213 63.6953 7.44563 64.6653 7.93416C65.5314 8.37529 66.2498 9.05994 66.732 9.90391C67.204 10.8118 67.4505 11.82 67.4505 12.8433C67.4505 13.8666 67.204 14.8748 66.732 15.7827C66.2498 16.6267 65.5314 17.3113 64.6653 17.7525C63.6933 18.2408 62.6167 18.4843 61.5292 18.4617C60.4469 18.4847 59.3756 18.2411 58.4097 17.7525ZM63.3632 14.8075C63.8128 14.2532 64.0583 13.5612 64.0583 12.8475C64.0583 12.1337 63.8128 11.4417 63.3632 10.8874C63.1257 10.6461 62.8426 10.4544 62.5304 10.3236C62.2181 10.1928 61.883 10.1254 61.5444 10.1254C61.2059 10.1254 60.8707 10.1928 60.5584 10.3236C60.2462 10.4544 59.9631 10.6461 59.7257 10.8874C59.276 11.4417 59.0306 12.1337 59.0306 12.8475C59.0306 13.5612 59.276 14.2532 59.7257 14.8075C59.9631 15.0488 60.2462 15.2405 60.5584 15.3713C60.8707 15.5022 61.2059 15.5695 61.5444 15.5695C61.883 15.5695 62.2181 15.5022 62.5304 15.3713C62.8426 15.2405 63.1257 15.0488 63.3632 14.8075Z" fill="#E0633A"/>
<path d="M5.33486 4.39355V7.50748H8.47096V9.44677H5.3127V14.5637C5.3127 15.7384 5.82799 16.3257 6.85858 16.3257C7.33811 16.311 7.80763 16.1849 8.22993 15.9572L8.88375 17.8716C8.20662 18.18 7.47241 18.3433 6.72837 18.3508C5.55372 18.3804 4.65057 18.072 4.01892 17.4255C3.38727 16.7791 3.07144 15.8252 3.07144 14.5637V9.44677H1.00195V7.50748H3.07144V4.63181L5.33486 4.39355Z" fill="#E0633A" stroke="#E0633A" stroke-width="0.554081" stroke-miterlimit="10"/>
</svg>
