<svg width="442" height="88" viewBox="0 0 442 88" fill="none" xmlns="http://www.w3.org/2000/svg">
<path d="M89.1197 19.78H0.429688L22.8897 0.570007H89.1197V19.78Z" fill="#E64235"/>
<path d="M66.9496 47.56H22.5996L45.0596 28.35H66.9496V47.56Z" fill="#E64235"/>
<path d="M66.9496 75.34H22.5996L45.0596 56.13H66.9496V75.34Z" fill="#E64235"/>
<path d="M174 69.27C172.179 71.1606 169.988 72.6551 167.564 73.66C165.139 74.6649 162.534 75.1585 159.91 75.11C155.153 75.1189 150.55 73.4327 146.925 70.3538C143.3 67.2748 140.891 63.0049 140.13 58.31L140.06 57.89V35.12H145.25C148.62 35.36 150.3 36.99 150.3 40.03V57C150.289 57.1927 150.312 57.3857 150.37 57.57C150.786 59.2753 151.702 60.8176 153 62C153.888 62.9289 154.961 63.6621 156.149 64.1529C157.337 64.6436 158.614 64.8811 159.9 64.85C161.183 64.8714 162.458 64.6295 163.645 64.1394C164.831 63.6492 165.905 62.9211 166.8 62C167.707 61.0955 168.427 60.0199 168.916 58.8355C169.405 57.6511 169.654 56.3814 169.65 55.1V40C169.65 36.92 171.316 35.2833 174.65 35.09H179.77V55.22C179.818 56.2447 179.747 57.2715 179.56 58.28C178.967 62.4556 177.013 66.3189 174 69.27Z" fill="#E64235"/>
<path d="M389.77 41C393.504 44.7808 395.599 49.8809 395.599 55.195C395.599 60.5091 393.504 65.6092 389.77 69.39C386.678 72.4513 382.68 74.4314 378.371 75.0351C374.063 75.6388 369.674 74.8338 365.86 72.74L365.68 72.63L365.51 72.52V82.2C365.51 85.5333 363.873 87.2 360.6 87.2H355.6V55.61C355.583 54.3734 355.323 53.1522 354.834 52.0163C354.345 50.8804 353.637 49.852 352.75 48.99C352.437 48.587 352.05 48.2476 351.61 47.99C351.134 47.6349 350.736 47.185 350.442 46.6687C350.147 46.1525 349.963 45.5809 349.9 44.99C349.822 44.3998 349.884 43.7995 350.082 43.2381C350.28 42.6766 350.609 42.1701 351.04 41.76C352.36 40.4088 353.869 39.2568 355.52 38.34C357.206 39.2081 358.725 40.3657 360.01 41.76C360.132 41.8968 360.274 42.0148 360.43 42.11C360.576 41.9241 360.733 41.7471 360.9 41.58C361.06 41.41 361.24 41.21 361.43 40.97C365.196 37.2352 370.286 35.1396 375.59 35.1396C380.894 35.1396 385.984 37.2352 389.75 40.97L389.77 41ZM382.51 62.14C383.439 61.2303 384.171 60.1397 384.661 58.9356C385.151 57.7316 385.389 56.4397 385.36 55.14C385.381 53.8562 385.14 52.5817 384.649 51.3949C384.159 50.2082 383.431 49.1345 382.51 48.24C381.155 46.8823 379.429 45.9545 377.55 45.5727C375.67 45.191 373.719 45.3723 371.941 46.0939C370.164 46.8155 368.639 48.0454 367.557 49.6296C366.476 51.2138 365.885 53.0819 365.86 55V55.57C365.912 58.0431 366.936 60.3961 368.71 62.12C370.546 63.9398 373.025 64.9608 375.61 64.9608C378.195 64.9608 380.675 63.9398 382.51 62.12V62.14Z" fill="#E64235"/>
<path d="M435.73 41C439.471 44.777 441.57 49.8785 441.57 55.195C441.57 60.5115 439.471 65.613 435.73 69.39C432.638 72.4513 428.64 74.4314 424.331 75.0351C420.022 75.6388 415.634 74.8338 411.82 72.74L411.65 72.63L411.47 72.52V82.2C411.47 85.5333 409.833 87.2 406.56 87.2H401.56V55.61C401.545 54.373 401.286 53.1512 400.797 52.015C400.307 50.8788 399.598 49.8507 398.71 48.99C398.402 48.5817 398.014 48.2413 397.57 47.99C397.093 47.6356 396.696 47.1858 396.403 46.6692C396.111 46.1527 395.929 45.5808 395.87 44.99C395.786 44.3996 395.846 43.7978 396.045 43.2356C396.243 42.6733 396.574 42.1672 397.01 41.76C398.327 40.4066 399.837 39.2543 401.49 38.34C403.172 39.2082 404.689 40.3659 405.97 41.76C406.092 41.9001 406.238 42.0184 406.4 42.11C406.539 41.9219 406.693 41.7447 406.86 41.58C407.048 41.387 407.225 41.1834 407.39 40.97C411.156 37.2352 416.245 35.1396 421.55 35.1396C426.854 35.1396 431.943 37.2352 435.71 40.97L435.73 41ZM428.47 62.14C429.398 61.2303 430.13 60.1397 430.621 58.9356C431.111 57.7316 431.349 56.4397 431.32 55.14C431.341 53.8562 431.099 52.5817 430.609 51.3949C430.119 50.2082 429.391 49.1345 428.47 48.24C427.114 46.8823 425.389 45.9545 423.509 45.5727C421.629 45.191 419.678 45.3723 417.901 46.0939C416.124 46.8155 414.599 48.0454 413.517 49.6296C412.435 51.2138 411.845 53.0819 411.82 55V55.57C411.872 58.0431 412.896 60.3961 414.67 62.12C416.505 63.9398 418.985 64.9608 421.57 64.9608C424.154 64.9608 426.634 63.9398 428.47 62.12V62.14Z" fill="#E64235"/>
<path d="M303 52.34V75.11H297.81C294.477 74.9233 292.81 73.2867 292.81 70.2V53.26C292.767 53.1481 292.744 53.0298 292.74 52.91C292.736 52.8097 292.712 52.7112 292.67 52.62C292.475 51.8084 292.162 51.03 291.74 50.31C291.285 49.5457 290.738 48.8404 290.11 48.21C289.214 47.2877 288.139 46.5588 286.95 46.0686C285.762 45.5784 284.485 45.3373 283.2 45.36C281.925 45.3561 280.661 45.6033 279.482 46.0876C278.302 46.572 277.23 47.2839 276.325 48.1828C275.421 49.0816 274.702 50.1499 274.211 51.3264C273.719 52.503 273.464 53.7649 273.46 55.04V70.2C273.469 70.9031 273.347 71.6018 273.1 72.26C272.48 74.02 270.92 74.96 268.4 75.11H263.21V24.59H268.33C268.961 24.5775 269.588 24.6974 270.17 24.9419C270.753 25.1865 271.277 25.5503 271.71 26.01C272.16 26.4571 272.515 26.9905 272.754 27.5781C272.993 28.1658 273.111 28.7957 273.1 29.43V37.75C276.163 35.9662 279.656 35.0566 283.2 35.12C287.943 35.1273 292.528 36.8197 296.139 39.8951C299.749 42.9705 302.149 47.2289 302.91 51.91L303 52.34Z" fill="#E64235"/>
<path d="M193.47 19.38V51.45L207.85 35.57H217.68V36L200.94 53.77L219.94 73.77V74.32H210.03L193.47 56.4V74.32H185.3V19.38H193.47Z" fill="#E64235" stroke="#E64235" stroke-width="2" stroke-miterlimit="10"/>
<path d="M251.59 45.08C248.779 42.5999 245.116 41.3059 241.37 41.47C239.305 41.3216 237.237 41.7145 235.37 42.61C234.699 42.9122 234.13 43.403 233.732 44.0225C233.335 44.6421 233.125 45.3638 233.13 46.1C233.184 48.88 235.987 50.5467 241.54 51.1C243.454 51.2744 245.357 51.5514 247.24 51.93C249 52.3257 250.712 52.9056 252.35 53.66C254.086 54.4096 255.541 55.6866 256.51 57.31C257.535 59.1395 258.04 61.2143 257.97 63.31C257.982 65.048 257.573 66.763 256.779 68.3091C255.985 69.8551 254.829 71.1866 253.41 72.19C250.424 74.4434 246.44 75.57 241.46 75.57C233.92 75.57 228.027 73.1867 223.78 68.42L228.02 62.68C231.354 66.4 235.887 68.3134 241.62 68.42C243.607 68.4676 245.576 68.0354 247.36 67.16C248.095 66.8372 248.722 66.3105 249.167 65.6424C249.612 64.9742 249.856 64.1926 249.87 63.39C249.928 62.627 249.753 61.8643 249.367 61.2034C248.981 60.5425 248.403 60.0146 247.71 59.69C245.56 58.7405 243.257 58.1818 240.91 58.04C230.43 57.0467 225.164 53.17 225.11 46.41C225.015 44.6168 225.422 42.8325 226.286 41.2582C227.15 39.684 228.436 38.3823 230 37.5C233.389 35.4991 237.266 34.4779 241.2 34.55C247.274 34.55 252.25 36.28 256.13 39.74L251.59 45.08Z" fill="#E64235" stroke="#E64235" stroke-width="2" stroke-miterlimit="10"/>
<path d="M315.42 72.63C312.305 71.033 309.722 68.5621 307.99 65.52C306.286 62.2429 305.396 58.6036 305.396 54.91C305.396 51.2164 306.286 47.5771 307.99 44.3C309.722 41.2579 312.305 38.787 315.42 37.19C318.911 35.4181 322.786 34.5386 326.7 34.63C330.619 34.5477 334.499 35.4266 338 37.19C341.126 38.7823 343.719 41.2536 345.46 44.3C347.164 47.5771 348.053 51.2164 348.053 54.91C348.053 58.6036 347.164 62.2429 345.46 65.52C343.719 68.5664 341.126 71.0377 338 72.63C334.491 74.3927 330.605 75.2715 326.68 75.19C322.773 75.2731 318.906 74.3939 315.42 72.63ZM333.3 62C334.923 59.9993 335.809 57.5013 335.809 54.925C335.809 52.3487 334.923 49.8507 333.3 47.85C332.443 46.9789 331.421 46.2871 330.294 45.8149C329.167 45.3427 327.957 45.0995 326.735 45.0995C325.513 45.0995 324.303 45.3427 323.176 45.8149C322.049 46.2871 321.027 46.9789 320.17 47.85C318.547 49.8507 317.661 52.3487 317.661 54.925C317.661 57.5013 318.547 59.9993 320.17 62C321.027 62.8711 322.049 63.5629 323.176 64.0351C324.303 64.5073 325.513 64.7505 326.735 64.7505C327.957 64.7505 329.167 64.5073 330.294 64.0351C331.421 63.5629 332.443 62.8711 333.3 62Z" fill="#E64235"/>
<path d="M123.84 24.41V35.65H135.16V42.65H123.76V61.12C123.76 65.36 125.62 67.48 129.34 67.48C131.071 67.4271 132.766 66.9717 134.29 66.15L136.65 73.06C134.206 74.1734 131.556 74.7627 128.87 74.79C124.63 74.8967 121.37 73.7833 119.09 71.45C116.81 69.1167 115.67 65.6733 115.67 61.12V42.65H108.2V35.65H115.67V25.27L123.84 24.41Z" fill="#E64235" stroke="#E64235" stroke-width="2" stroke-miterlimit="10"/>
</svg>
