<svg width="163" height="32" viewBox="0 0 163 32" fill="none" xmlns="http://www.w3.org/2000/svg">
<path d="M32.7609 7.0958H0L8.29643 -0.00012207H32.7609V7.0958Z" fill="white"/>
<path d="M24.5718 17.3573H8.18945L16.4859 10.2614H24.5718V17.3573Z" fill="white"/>
<path d="M24.5718 27.6191H8.18945L16.4859 20.5231H24.5718V27.6191Z" fill="white"/>
<path d="M64.1141 25.3769C63.4417 26.0752 62.6324 26.6273 61.7369 26.9985C60.8413 27.3697 59.8788 27.552 58.9095 27.5341C57.1526 27.5374 55.4521 26.9145 54.1131 25.7772C52.774 24.6399 51.8841 23.0626 51.603 21.3284L51.5771 21.1733V12.7623H53.4943C54.7391 12.851 55.3597 13.4531 55.3597 14.576V20.8445C55.3557 20.9157 55.3644 20.987 55.3855 21.055C55.5395 21.6849 55.8777 22.2547 56.357 22.6914C56.6853 23.0345 57.0815 23.3054 57.5203 23.4867C57.9592 23.6679 58.4311 23.7557 58.9058 23.7442C59.38 23.7521 59.8508 23.6627 60.2892 23.4817C60.7275 23.3006 61.1241 23.0317 61.4546 22.6914C61.7898 22.3573 62.0555 21.96 62.2362 21.5225C62.4169 21.085 62.5091 20.616 62.5073 20.1427V14.5649C62.5073 13.4272 63.123 12.8226 64.3542 12.7512H66.2455V20.187C66.2634 20.5655 66.2373 20.9448 66.1679 21.3173C65.949 22.8597 65.2271 24.2868 64.1141 25.3769Z" fill="white"/>
<path d="M143.818 14.9342C145.197 16.3308 145.971 18.2147 145.971 20.1776C145.971 22.1406 145.197 24.0245 143.818 25.4211C142.676 26.5519 141.199 27.2833 139.607 27.5063C138.016 27.7293 136.395 27.4319 134.986 26.6585L134.919 26.6179L134.856 26.5772V30.1529C134.856 31.3842 134.252 31.9999 133.043 31.9999H131.196V20.3309C131.19 19.8741 131.093 19.423 130.913 19.0035C130.732 18.5839 130.471 18.204 130.143 17.8856C130.028 17.7367 129.885 17.6113 129.722 17.5162C129.546 17.385 129.399 17.2188 129.29 17.0281C129.182 16.8374 129.113 16.6263 129.09 16.408C129.061 16.19 129.084 15.9683 129.158 15.7609C129.231 15.5535 129.352 15.3664 129.511 15.2149C129.999 14.7158 130.556 14.2903 131.166 13.9516C131.789 14.2723 132.35 14.6999 132.825 15.2149C132.87 15.2654 132.922 15.309 132.98 15.3442C133.034 15.2755 133.092 15.2102 133.154 15.1484C133.213 15.0856 133.279 15.0117 133.349 14.9231C134.741 13.5435 136.621 12.7694 138.58 12.7694C140.539 12.7694 142.419 13.5435 143.81 14.9231L143.818 14.9342ZM141.136 22.743C141.479 22.407 141.749 22.0041 141.931 21.5594C142.112 21.1146 142.2 20.6374 142.189 20.1573C142.197 19.6831 142.107 19.2123 141.926 18.7739C141.745 18.3356 141.476 17.939 141.136 17.6085C140.635 17.107 139.998 16.7643 139.304 16.6233C138.609 16.4823 137.889 16.5492 137.232 16.8158C136.576 17.0824 136.012 17.5367 135.613 18.1218C135.213 18.707 134.995 19.3971 134.986 20.1056V20.3161C135.005 21.2297 135.383 22.0988 136.038 22.7356C136.716 23.4078 137.632 23.785 138.587 23.785C139.542 23.785 140.458 23.4078 141.136 22.7356V22.743Z" fill="white"/>
<path d="M160.794 14.9342C162.176 16.3293 162.951 18.2138 162.951 20.1776C162.951 22.1415 162.176 24.0259 160.794 25.4211C159.652 26.5519 158.175 27.2833 156.583 27.5063C154.992 27.7293 153.371 27.4319 151.962 26.6585L151.899 26.6179L151.833 26.5772V30.1529C151.833 31.3842 151.228 31.9999 150.019 31.9999H148.172V20.3309C148.167 19.874 148.071 19.4227 147.89 19.003C147.709 18.5833 147.447 18.2035 147.119 17.8856C147.006 17.7348 146.862 17.609 146.698 17.5162C146.522 17.3853 146.375 17.2191 146.267 17.0283C146.159 16.8375 146.092 16.6262 146.07 16.408C146.039 16.19 146.061 15.9676 146.135 15.76C146.208 15.5523 146.33 15.3653 146.491 15.2149C146.978 14.715 147.536 14.2893 148.146 13.9516C148.768 14.2723 149.328 14.6999 149.801 15.2149C149.846 15.2666 149.9 15.3104 149.96 15.3442C150.011 15.2747 150.068 15.2093 150.13 15.1484C150.199 15.0771 150.265 15.0019 150.325 14.9231C151.717 13.5435 153.597 12.7694 155.556 12.7694C157.515 12.7694 159.395 13.5435 160.787 14.9231L160.794 14.9342ZM158.112 22.743C158.455 22.407 158.726 22.0041 158.907 21.5594C159.088 21.1146 159.176 20.6374 159.165 20.1573C159.173 19.6831 159.083 19.2123 158.902 18.7739C158.721 18.3356 158.452 17.939 158.112 17.6085C157.612 17.107 156.974 16.7643 156.28 16.6233C155.585 16.4823 154.865 16.5492 154.208 16.8158C153.552 17.0824 152.988 17.5367 152.589 18.1218C152.189 18.707 151.971 19.3971 151.962 20.1056V20.3161C151.981 21.2297 152.359 22.0988 153.015 22.7356C153.693 23.4078 154.609 23.785 155.563 23.785C156.518 23.785 157.434 23.4078 158.112 22.7356V22.743Z" fill="white"/>
<path d="M111.765 19.1231V27.534H109.848C108.617 27.4651 108.001 26.8605 108.001 25.7203V19.4629C107.985 19.4216 107.977 19.3779 107.975 19.3336C107.974 19.2966 107.965 19.2602 107.95 19.2265C107.878 18.9267 107.762 18.6392 107.606 18.3732C107.438 18.0909 107.236 17.8303 107.004 17.5975C106.673 17.2568 106.276 16.9876 105.837 16.8065C105.398 16.6254 104.926 16.5363 104.451 16.5448C103.98 16.5433 103.514 16.6346 103.078 16.8135C102.642 16.9924 102.246 17.2554 101.912 17.5874C101.578 17.9195 101.312 18.3141 101.131 18.7487C100.949 19.1833 100.855 19.6494 100.854 20.1204V25.7203C100.857 25.98 100.812 26.2381 100.721 26.4813C100.492 27.1314 99.9154 27.4786 98.9845 27.534H97.0674V8.87258H98.9586C99.1918 8.86795 99.4234 8.91224 99.6385 9.00258C99.8535 9.09292 100.047 9.22732 100.207 9.39711C100.373 9.56225 100.505 9.75928 100.593 9.97636C100.681 10.1934 100.725 10.4261 100.721 10.6604V13.7337C101.852 13.0748 103.142 12.7388 104.451 12.7622C106.203 12.7649 107.897 13.3901 109.231 14.5261C110.564 15.6621 111.451 17.2351 111.732 18.9642L111.765 19.1231Z" fill="white"/>
<path d="M71.307 6.94812V18.7944L76.6187 12.9285H80.2498V13.0873L74.0663 19.6513L81.0846 27.0391V27.2422H77.424L71.307 20.6228V27.2422H68.2891V6.94812H71.307Z" fill="white" stroke="white" stroke-width="0.738774" stroke-miterlimit="10"/>
<path d="M92.7756 16.4414C91.7371 15.5253 90.3839 15.0473 89.0004 15.1079C88.2376 15.0531 87.4737 15.1982 86.7841 15.529C86.5361 15.6406 86.3259 15.8219 86.1791 16.0508C86.0322 16.2796 85.9549 16.5462 85.9567 16.8182C85.9764 17.8451 87.0119 18.4607 89.0632 18.6651C89.7701 18.7295 90.4729 18.8318 91.1687 18.9717C91.8186 19.1179 92.4513 19.3321 93.0563 19.6107C93.6974 19.8876 94.2351 20.3593 94.593 20.959C94.9714 21.6348 95.1579 22.4012 95.1323 23.1753C95.1364 23.8173 94.9855 24.4508 94.6922 25.0219C94.3989 25.593 93.9721 26.0848 93.4479 26.4555C92.3446 27.2878 90.8732 27.704 89.0337 27.704C86.2485 27.704 84.0716 26.8236 82.5029 25.0629L84.0691 22.9426C85.3004 24.3167 86.975 25.0235 89.0928 25.0629C89.8267 25.0805 90.554 24.9208 91.2131 24.5974C91.4845 24.4782 91.7161 24.2836 91.8805 24.0368C92.0448 23.79 92.1349 23.5013 92.1402 23.2049C92.1617 22.923 92.0968 22.6413 91.9543 22.3971C91.8118 22.153 91.5984 21.958 91.3424 21.8381C90.5479 21.4874 89.6974 21.281 88.8305 21.2286C84.9594 20.8617 83.0139 19.4297 82.9942 16.9327C82.9589 16.2703 83.1092 15.6112 83.4284 15.0297C83.7475 14.4481 84.2228 13.9673 84.8005 13.6414C86.0521 12.9023 87.4843 12.5251 88.9377 12.5517C91.1811 12.5517 93.0194 13.1908 94.4526 14.4689L92.7756 16.4414Z" fill="white" stroke="white" stroke-width="0.738774" stroke-miterlimit="10"/>
<path d="M116.353 26.618C115.202 26.0281 114.248 25.1154 113.608 23.9917C112.979 22.7811 112.65 21.4368 112.65 20.0725C112.65 18.7081 112.979 17.3638 113.608 16.1533C114.248 15.0296 115.202 14.1169 116.353 13.5269C117.642 12.8724 119.074 12.5475 120.52 12.5813C121.967 12.5509 123.4 12.8756 124.694 13.5269C125.849 14.1151 126.806 15.028 127.449 16.1533C128.079 17.3638 128.407 18.7081 128.407 20.0725C128.407 21.4368 128.079 22.7811 127.449 23.9917C126.806 25.117 125.849 26.0298 124.694 26.618C123.398 27.2691 121.962 27.5938 120.512 27.5636C119.069 27.5943 117.641 27.2696 116.353 26.618ZM122.958 22.6914C123.557 21.9524 123.884 21.0297 123.884 20.078C123.884 19.1264 123.557 18.2036 122.958 17.4646C122.641 17.1428 122.263 16.8873 121.847 16.7129C121.431 16.5384 120.984 16.4486 120.533 16.4486C120.081 16.4486 119.634 16.5384 119.218 16.7129C118.802 16.8873 118.424 17.1428 118.108 17.4646C117.508 18.2036 117.181 19.1264 117.181 20.078C117.181 21.0297 117.508 21.9524 118.108 22.6914C118.424 23.0132 118.802 23.2687 119.218 23.4432C119.634 23.6176 120.081 23.7074 120.533 23.7074C120.984 23.7074 121.431 23.6176 121.847 23.4432C122.263 23.2687 122.641 23.0132 122.958 22.6914Z" fill="white"/>
<path d="M45.5858 8.80609V12.958H49.7673V15.5437H45.5563V22.3663C45.5563 23.9325 46.2433 24.7156 47.6174 24.7156C48.2568 24.696 48.8828 24.5278 49.4459 24.2243L50.3177 26.7768C49.4148 27.188 48.4359 27.4057 47.4438 27.4158C45.8776 27.4552 44.6734 27.044 43.8312 26.1821C42.989 25.3202 42.5679 24.0482 42.5679 22.3663V15.5437H39.8086V12.958H42.5679V9.12376L45.5858 8.80609Z" fill="white" stroke="white" stroke-width="0.738774" stroke-miterlimit="10"/>
</svg>
